<?xml version="1.0" standalone="no"?>
<!DOCTYPE svg PUBLIC "-//W3C//DTD SVG 20010904//EN"
 "http://www.w3.org/TR/2001/REC-SVG-20010904/DTD/svg10.dtd">
<svg version="1.0" xmlns="http://www.w3.org/2000/svg"
 width="1584.000000pt" height="1584.000000pt" viewBox="0 0 1584.000000 1584.000000"
 preserveAspectRatio="xMidYMid meet">
<metadata>
Created by potrace 1.14, written by Peter Selinger 2001-2017
</metadata>
<g transform="translate(0.000000,1584.000000) scale(0.100000,-0.100000)"
fill="#000000" stroke="none">
<path d="M7399 14505 c-5 -4 -143 -14 -266 -18 -29 -1 -53 -5 -53 -8 0 -3 -12
-5 -27 -3 -15 1 -35 -2 -44 -7 -12 -6 -20 -5 -24 1 -4 6 -12 7 -18 3 -7 -4
-28 -8 -47 -9 -19 -1 -35 -3 -35 -4 0 -1 -11 -3 -25 -4 -14 0 -31 -5 -37 -9
-8 -5 -13 -4 -13 3 0 6 -5 8 -11 4 -6 -4 -23 -8 -38 -10 -14 -1 -46 -5 -71 -8
-25 -4 -57 -8 -72 -9 -15 -2 -35 -10 -44 -18 -11 -9 -15 -9 -10 -1 7 12 -6 17
-17 5 -6 -5 -37 -10 -99 -16 -10 -1 -18 -4 -18 -7 0 -3 -17 -6 -37 -8 -73 -5
-83 -7 -83 -14 0 -5 -3 -7 -7 -6 -5 1 -21 -1 -38 -5 -16 -4 -43 -9 -60 -12
-38 -8 -60 -13 -60 -15 0 -1 -9 -3 -20 -4 -43 -6 -91 -19 -102 -28 -9 -7 -13
-6 -13 3 0 9 -3 10 -8 4 -4 -5 -18 -12 -32 -13 -14 -2 -30 -8 -36 -13 -7 -5
-16 -9 -20 -8 -5 1 -12 0 -16 -1 -12 -4 -20 -6 -53 -14 -16 -4 -37 -11 -45
-15 -8 -4 -23 -7 -32 -5 -10 1 -18 -2 -18 -8 0 -6 -7 -8 -15 -4 -8 3 -15 2
-15 -3 0 -4 -6 -8 -12 -9 -44 -5 -72 -12 -77 -19 -3 -4 -15 -9 -26 -11 -19 -2
-44 -8 -55 -12 -3 -1 -8 -2 -12 -1 -5 0 -8 -3 -8 -9 0 -6 -3 -9 -7 -8 -7 2
-64 -14 -103 -29 -8 -3 -19 -7 -25 -8 -15 -4 -126 -45 -155 -57 -55 -23 -66
-28 -95 -39 -16 -7 -34 -13 -40 -15 -58 -19 -85 -30 -85 -37 0 -5 -4 -5 -10
-2 -5 3 -10 1 -10 -5 0 -6 -4 -9 -9 -5 -5 3 -15 -1 -23 -8 -7 -8 -19 -12 -26
-9 -6 2 -12 -1 -12 -8 0 -6 -4 -9 -9 -5 -5 3 -12 1 -16 -5 -4 -6 -11 -8 -16
-5 -5 4 -9 1 -9 -5 0 -6 -5 -8 -10 -5 -6 3 -13 0 -16 -9 -3 -8 -12 -12 -20 -9
-8 3 -14 0 -14 -7 0 -6 -4 -8 -10 -5 -5 3 -10 1 -10 -5 0 -6 -4 -9 -8 -6 -4 2
-31 -8 -60 -24 -29 -16 -50 -23 -46 -17 3 7 0 5 -8 -4 -7 -9 -17 -17 -23 -19
-32 -10 -75 -31 -80 -40 -4 -6 -11 -8 -16 -5 -5 4 -9 1 -9 -5 0 -6 -5 -8 -10
-5 -6 3 -12 0 -15 -7 -3 -8 -15 -15 -28 -15 -12 -1 -27 -10 -34 -19 -7 -10
-13 -14 -13 -10 0 5 -7 3 -15 -4 -8 -7 -15 -9 -15 -6 0 4 -7 0 -16 -8 -8 -9
-22 -16 -30 -16 -8 0 -14 -5 -14 -12 0 -6 -3 -8 -7 -5 -3 4 -17 -3 -30 -15
-12 -12 -26 -19 -29 -15 -3 3 -15 -3 -27 -14 -11 -10 -27 -19 -34 -19 -7 0
-13 -4 -13 -9 0 -5 -12 -14 -27 -20 -37 -14 -85 -43 -101 -61 -10 -11 -12 -12
-6 -1 5 9 -2 7 -18 -5 -14 -10 -23 -23 -20 -29 3 -5 2 -7 -3 -3 -9 9 -65 -19
-65 -32 0 -6 -7 -10 -15 -10 -9 0 -25 -9 -37 -20 -12 -11 -28 -20 -35 -20 -7
0 -13 -3 -13 -8 0 -4 -14 -13 -30 -20 -17 -8 -27 -18 -24 -24 4 -7 2 -8 -4 -4
-6 4 -20 -2 -32 -14 -11 -11 -20 -18 -20 -15 0 5 -29 -18 -55 -42 -8 -7 -18
-13 -22 -13 -5 0 -18 -8 -29 -19 -11 -10 -39 -30 -61 -44 -23 -15 -54 -39 -69
-54 -16 -15 -31 -28 -34 -27 -6 0 -23 -13 -50 -40 -11 -11 -20 -16 -20 -12 0
4 -11 -5 -25 -20 -14 -15 -25 -24 -25 -20 0 4 -15 -7 -32 -24 -18 -17 -45 -38
-60 -48 -16 -9 -28 -22 -28 -30 0 -7 -4 -11 -9 -7 -6 3 -15 -4 -21 -15 -6 -11
-15 -18 -21 -15 -5 4 -9 -1 -9 -10 0 -9 -5 -13 -10 -10 -6 3 -10 1 -10 -4 0
-6 -8 -11 -17 -11 -15 0 -16 -2 -3 -10 12 -8 10 -10 -8 -10 -13 0 -20 -4 -17
-10 3 -5 1 -10 -5 -10 -6 0 -24 -13 -39 -29 -16 -16 -31 -27 -34 -25 -3 3 -8
-4 -12 -15 -3 -12 -9 -20 -13 -18 -10 5 -91 -81 -83 -88 3 -4 1 -6 -4 -5 -22
5 -34 -1 -40 -20 -3 -11 -13 -20 -21 -20 -8 0 -13 -4 -9 -9 3 -5 -4 -12 -14
-16 -11 -3 -23 -15 -26 -26 -4 -10 -9 -18 -13 -16 -4 2 -19 -10 -34 -25 -15
-15 -24 -28 -20 -28 4 -1 -4 -7 -18 -15 -14 -8 -22 -14 -18 -15 4 0 -3 -10
-15 -23 -12 -13 -25 -22 -29 -20 -5 2 -8 -3 -8 -11 0 -9 -8 -16 -17 -16 -13 0
-15 -2 -5 -8 9 -6 6 -12 -13 -20 -14 -6 -25 -19 -25 -27 0 -9 -3 -14 -7 -12
-5 3 -17 -6 -28 -20 -11 -13 -35 -40 -52 -59 -18 -19 -33 -39 -33 -45 0 -5 -4
-7 -10 -4 -5 3 -10 0 -10 -8 0 -8 -7 -17 -15 -21 -8 -3 -15 -13 -15 -21 0 -9
-4 -13 -10 -10 -5 3 -10 1 -10 -5 0 -6 -15 -24 -32 -41 -18 -16 -29 -29 -25
-29 4 0 -5 -13 -20 -28 -15 -16 -37 -41 -48 -57 -11 -16 -28 -36 -39 -46 -10
-10 -15 -23 -11 -30 5 -7 4 -10 -1 -7 -5 3 -15 0 -22 -8 -7 -8 -10 -14 -6 -14
4 0 -5 -10 -20 -21 -15 -12 -25 -23 -22 -26 3 -3 -6 -15 -18 -28 -13 -13 -33
-39 -45 -59 -13 -20 -28 -36 -33 -36 -6 0 -8 -3 -5 -6 4 -4 -11 -29 -33 -57
-22 -27 -37 -54 -33 -60 3 -5 1 -7 -5 -3 -6 3 -13 -3 -17 -14 -3 -11 -11 -20
-16 -20 -6 0 -8 -4 -5 -9 3 -5 -1 -12 -10 -15 -8 -3 -13 -10 -10 -15 3 -5 -1
-11 -9 -15 -8 -3 -15 -12 -15 -21 0 -8 -4 -15 -10 -15 -5 0 -10 -7 -10 -15 0
-9 -7 -18 -15 -21 -8 -4 -13 -10 -10 -14 3 -5 -1 -14 -8 -22 -25 -26 -57 -85
-49 -93 4 -5 2 -5 -5 -2 -7 4 -17 -5 -25 -23 -7 -16 -16 -30 -19 -30 -4 0 -10
-11 -13 -25 -4 -14 -11 -25 -17 -25 -6 0 -7 -5 -4 -10 3 -6 -1 -13 -9 -16 -9
-3 -13 -10 -10 -15 3 -5 0 -9 -6 -9 -6 0 -8 -4 -5 -10 3 -5 2 -10 -4 -10 -5 0
-13 -10 -17 -22 -3 -13 -15 -35 -25 -49 -10 -14 -19 -32 -21 -40 -2 -8 -11
-22 -21 -31 -11 -9 -16 -22 -12 -27 3 -6 1 -11 -4 -11 -6 0 -11 -7 -11 -15 0
-8 -5 -15 -10 -15 -6 0 -9 -3 -8 -7 1 -5 -3 -18 -10 -30 -7 -13 -10 -23 -7
-23 3 0 -3 -10 -14 -22 -11 -11 -18 -25 -15 -30 3 -4 1 -8 -3 -8 -9 0 -39 -69
-35 -83 1 -4 -4 -6 -10 -5 -7 2 -12 -3 -10 -9 1 -7 -2 -13 -8 -13 -5 0 -7 -6
-4 -13 3 -8 -2 -20 -10 -27 -9 -7 -13 -16 -10 -21 3 -5 1 -9 -4 -9 -9 0 -26
-48 -22 -59 1 -2 -3 -7 -10 -11 -6 -4 -12 -17 -13 -28 -1 -12 -4 -22 -7 -22
-3 0 -14 -17 -23 -37 -43 -99 -51 -119 -49 -125 1 -5 -2 -8 -8 -8 -5 0 -10 -7
-10 -16 0 -8 -5 -25 -12 -37 -7 -12 -13 -31 -15 -41 -2 -11 -8 -26 -15 -33 -6
-7 -8 -16 -5 -19 3 -4 0 -13 -8 -21 -8 -8 -15 -23 -15 -33 0 -10 -5 -22 -10
-25 -6 -4 -8 -11 -5 -16 4 -5 1 -9 -4 -9 -6 0 -10 -3 -10 -7 4 -19 -15 -73
-24 -73 -6 0 -8 -3 -4 -6 3 -4 0 -21 -8 -39 -7 -19 -11 -36 -7 -39 3 -3 1 -6
-5 -6 -5 0 -10 -6 -11 -12 -1 -19 -7 -39 -21 -71 -6 -16 -8 -33 -5 -39 5 -7 2
-8 -6 -3 -10 6 -12 4 -7 -7 3 -9 1 -20 -3 -24 -5 -5 -11 -21 -14 -34 -2 -14
-5 -26 -7 -27 -1 -2 -2 -6 -3 -10 -2 -5 -8 -28 -16 -53 -7 -25 -13 -51 -13
-57 0 -7 -5 -13 -10 -13 -6 0 -8 -3 -4 -6 3 -4 0 -22 -8 -41 -10 -24 -11 -32
-2 -27 9 5 9 3 0 -7 -7 -7 -13 -23 -13 -36 0 -13 -4 -23 -8 -23 -4 0 -8 -8 -9
-18 -2 -31 -8 -47 -18 -54 -6 -5 -5 -8 4 -8 10 0 11 -4 3 -12 -9 -12 -15 -34
-27 -103 -2 -11 -4 -20 -5 -20 -1 0 -3 -7 -5 -15 -2 -8 -6 -28 -10 -45 -9 -42
-13 -60 -15 -62 -2 -2 -3 -11 -4 -20 -1 -10 -4 -22 -7 -28 -3 -5 -5 -22 -4
-37 1 -16 -1 -28 -5 -28 -4 0 -8 -11 -9 -25 -1 -14 -2 -36 -3 -50 -1 -14 -6
-25 -11 -25 -4 0 -6 -4 -3 -8 2 -4 -2 -41 -10 -82 -8 -41 -15 -90 -16 -108 -1
-18 -5 -35 -10 -38 -5 -3 -4 -12 3 -20 6 -8 7 -14 2 -14 -5 0 -10 -17 -11 -37
-1 -21 -4 -48 -7 -61 -5 -30 -17 -137 -19 -177 -1 -16 -5 -36 -9 -42 -5 -8 -3
-13 5 -13 8 0 9 -3 2 -8 -5 -4 -10 -33 -10 -64 1 -32 -1 -58 -4 -58 -3 0 -5
-21 -4 -47 0 -27 -3 -58 -7 -70 -5 -14 -4 -23 3 -25 7 -3 8 -9 3 -18 -11 -18
-13 -90 -2 -97 4 -3 4 -10 -2 -17 -11 -13 -10 -34 2 -53 4 -6 3 -14 -2 -17
-13 -8 -11 -238 3 -255 8 -11 8 -13 -1 -8 -15 9 -13 -164 2 -175 6 -5 5 -8 -3
-8 -7 0 -11 -4 -8 -9 6 -8 19 -192 18 -233 0 -10 4 -20 9 -24 6 -4 6 -11 -1
-19 -8 -10 -8 -15 0 -20 8 -5 8 -11 -1 -21 -6 -8 -8 -14 -3 -14 5 0 10 -24 12
-53 1 -28 5 -68 8 -87 3 -19 7 -48 8 -65 2 -16 5 -31 6 -32 1 -2 2 -18 2 -35
1 -18 6 -39 12 -47 9 -12 8 -13 -3 -6 -10 6 -12 4 -6 -5 7 -11 12 -38 18 -100
2 -14 7 -31 11 -38 4 -7 2 -12 -6 -12 -9 0 -9 -3 2 -10 8 -5 11 -10 6 -10 -5
0 -4 -6 1 -12 6 -7 9 -25 8 -40 -1 -16 1 -28 6 -28 4 0 6 -11 4 -25 -1 -14 1
-28 6 -31 4 -2 6 -11 2 -19 -3 -8 -1 -15 3 -15 5 0 10 -21 11 -47 1 -27 6 -49
11 -51 4 -1 7 -16 6 -32 -1 -17 2 -32 7 -35 4 -3 6 -12 2 -20 -3 -8 -1 -15 4
-15 5 0 10 -13 11 -30 3 -50 5 -60 13 -60 4 0 6 -13 5 -30 -1 -16 2 -30 7 -30
5 0 7 -9 4 -20 -3 -11 -1 -23 4 -26 5 -3 9 -16 9 -30 0 -13 4 -24 9 -24 6 0 8
-9 6 -20 -2 -11 1 -22 6 -25 5 -4 7 -10 4 -15 -3 -5 -1 -11 4 -15 6 -3 8 -12
4 -20 -3 -8 -1 -15 5 -15 6 0 8 -9 5 -20 -3 -11 -1 -20 4 -20 5 0 10 -6 11
-12 0 -7 3 -20 5 -28 2 -8 7 -32 12 -53 4 -20 11 -39 15 -42 5 -3 11 -23 15
-45 4 -22 11 -42 15 -45 5 -3 7 -12 3 -20 -3 -8 1 -15 8 -15 7 0 9 -3 6 -7 -4
-3 -2 -12 4 -20 6 -7 8 -13 4 -13 -4 0 -2 -7 5 -15 7 -8 9 -15 4 -15 -5 0 -2
-5 6 -10 13 -9 13 -10 0 -10 -9 0 -11 -3 -5 -8 9 -7 32 -59 40 -92 2 -8 4 -17
5 -20 1 -3 2 -8 1 -12 0 -5 4 -8 10 -8 5 0 8 -4 4 -9 -3 -5 0 -13 6 -16 5 -4
8 -13 5 -21 -3 -8 -1 -14 4 -14 6 0 10 -6 10 -14 0 -7 7 -26 14 -42 8 -15 13
-31 10 -36 -3 -4 0 -8 5 -8 6 0 11 -9 11 -20 0 -11 4 -20 8 -20 4 0 9 -10 9
-22 1 -13 7 -24 12 -26 5 -2 8 -9 5 -16 -3 -8 2 -16 11 -20 9 -3 14 -10 11
-15 -4 -5 11 -45 31 -88 20 -43 37 -80 38 -83 0 -3 6 -15 13 -26 6 -12 8 -24
5 -28 -3 -3 -1 -6 5 -6 7 0 12 -9 12 -19 0 -11 5 -21 11 -23 5 -2 11 -10 12
-18 5 -26 41 -100 49 -100 4 0 8 -9 8 -20 0 -11 5 -20 11 -20 5 0 7 -5 4 -10
-3 -6 0 -12 7 -15 8 -3 15 -15 15 -28 1 -12 7 -23 13 -25 5 -2 10 -10 10 -18
0 -8 4 -14 9 -14 5 0 8 -8 7 -17 0 -10 5 -17 12 -15 8 1 11 -1 8 -6 -3 -5 4
-23 15 -41 11 -19 14 -30 7 -26 -7 4 -2 -3 11 -14 13 -12 21 -21 17 -21 -3 0
3 -15 14 -33 11 -17 29 -50 41 -72 12 -22 25 -42 28 -45 3 -3 17 -26 30 -52
13 -27 28 -48 33 -48 4 0 8 -5 8 -12 0 -6 11 -26 25 -43 13 -18 21 -35 18 -39
-4 -3 -1 -6 6 -6 7 0 9 -4 6 -10 -3 -5 1 -10 9 -10 9 0 16 -7 16 -15 0 -9 9
-25 20 -37 11 -12 20 -28 20 -35 0 -7 5 -13 10 -13 6 0 10 -7 10 -15 0 -8 4
-15 9 -15 5 0 11 -9 14 -21 3 -12 10 -18 17 -14 6 3 10 3 9 -2 -3 -17 14 -53
22 -47 5 3 9 0 9 -6 0 -12 41 -73 53 -78 4 -2 7 -10 7 -17 0 -7 7 -16 16 -19
9 -4 14 -9 11 -12 -3 -4 -1 -12 6 -19 7 -6 23 -27 37 -45 14 -18 31 -39 38
-46 6 -7 12 -15 12 -19 0 -5 14 -22 70 -84 27 -29 30 -35 30 -51 0 -5 8 -10
17 -10 9 0 14 -3 10 -6 -5 -6 22 -40 70 -90 13 -13 23 -26 23 -29 0 -13 48
-53 56 -47 4 4 4 2 1 -4 -4 -6 11 -30 32 -52 22 -22 36 -43 33 -46 -3 -3 3 -6
13 -6 10 0 16 -2 13 -5 -3 -4 21 -33 53 -65 33 -33 59 -65 59 -72 0 -6 3 -9 6
-6 5 6 54 -38 54 -48 0 -2 19 -21 41 -42 23 -20 47 -43 53 -50 6 -7 24 -25 40
-40 16 -15 39 -37 51 -49 13 -12 26 -19 29 -16 3 4 6 1 6 -5 0 -18 32 -52 43
-45 6 3 7 1 3 -6 -4 -6 -1 -14 7 -17 8 -3 41 -30 73 -60 32 -30 64 -54 71 -54
7 0 12 -3 11 -7 -3 -8 38 -53 47 -53 3 0 10 0 17 0 6 0 9 -3 5 -6 -6 -6 28
-44 41 -44 4 0 16 -11 26 -25 10 -14 23 -25 28 -25 17 0 58 -37 50 -45 -4 -5
-2 -5 4 -2 6 4 24 -7 40 -23 16 -16 34 -30 39 -30 6 0 24 -14 42 -30 18 -17
34 -30 37 -30 6 0 38 -25 66 -51 9 -8 22 -13 28 -11 7 2 11 -2 10 -9 -2 -7 2
-13 7 -14 6 0 26 -12 46 -28 20 -15 41 -27 47 -27 6 0 16 -9 22 -20 6 -11 17
-20 25 -20 8 0 15 -4 15 -10 0 -5 5 -10 11 -10 6 0 17 -7 26 -15 8 -8 19 -13
24 -10 5 4 9 -1 9 -10 0 -9 5 -15 12 -13 7 3 23 -6 36 -19 13 -13 27 -21 32
-18 4 3 11 -2 14 -11 4 -9 13 -14 22 -10 8 3 12 2 9 -3 -3 -5 4 -12 15 -16 11
-3 20 -11 20 -16 0 -6 4 -7 10 -4 6 3 10 1 10 -4 0 -6 7 -11 15 -11 8 0 15 -4
15 -9 0 -5 8 -11 18 -14 9 -4 35 -18 57 -32 22 -14 48 -28 57 -31 10 -4 18
-11 18 -18 0 -7 4 -6 9 2 7 11 9 11 14 -2 4 -9 14 -16 22 -16 9 0 13 -4 10
-10 -3 -5 3 -10 14 -10 12 0 21 -4 21 -8 0 -4 16 -14 35 -21 19 -7 35 -17 35
-22 0 -5 6 -9 13 -9 15 0 97 -41 115 -58 8 -7 19 -11 25 -9 7 2 20 -5 31 -14
10 -10 23 -16 28 -13 4 3 8 1 8 -4 0 -9 37 -25 53 -23 4 1 7 -4 7 -9 0 -6 9
-10 20 -10 11 0 20 -4 20 -10 0 -5 6 -10 13 -10 7 0 31 -9 53 -19 21 -11 43
-17 48 -14 5 4 6 1 2 -5 -4 -7 -2 -13 3 -13 6 -1 16 -3 21 -4 6 -1 17 -3 26
-4 9 -1 12 -6 8 -13 -4 -7 -4 -10 1 -6 4 4 22 0 39 -9 61 -31 67 -34 76 -28 6
4 10 -1 10 -10 0 -9 5 -13 10 -10 6 4 17 1 25 -5 8 -6 19 -9 25 -5 5 3 10 1
10 -6 0 -7 3 -9 7 -6 3 4 12 -1 20 -11 8 -9 12 -11 8 -4 -10 19 13 14 24 -6 7
-12 10 -13 11 -3 0 11 4 11 18 -2 10 -10 26 -17 35 -17 9 0 19 -5 22 -10 4 -6
11 -8 16 -5 5 4 9 1 9 -5 0 -6 4 -8 10 -5 5 3 10 2 10 -4 0 -5 9 -8 20 -6 11
2 20 -1 20 -7 0 -5 7 -8 15 -4 8 3 15 1 15 -5 0 -6 7 -9 15 -5 8 3 15 1 15 -4
0 -6 3 -9 8 -8 4 0 14 -1 22 -4 8 -3 38 -14 65 -24 28 -10 58 -18 68 -18 9 1
17 -3 17 -8 0 -5 4 -6 10 -3 5 3 10 1 10 -5 0 -7 6 -10 14 -7 7 3 19 0 25 -6
6 -6 11 -7 11 -3 0 5 6 4 13 -2 7 -6 24 -13 37 -15 52 -10 85 -20 98 -30 8 -6
12 -5 12 4 0 11 2 11 9 0 8 -13 19 -17 69 -23 6 -1 12 -5 12 -9 0 -5 6 -6 14
-3 8 3 26 -2 40 -11 18 -12 26 -14 26 -5 0 9 3 10 13 1 8 -6 17 -8 20 -4 4 3
7 2 7 -3 0 -5 10 -11 23 -12 25 -2 62 -10 62 -12 0 -2 37 -10 63 -12 12 -1 22
-5 22 -8 0 -3 15 -7 33 -10 94 -14 3002 -4 3002 10 0 1 11 3 25 6 14 2 32 7
40 10 8 4 32 8 54 10 21 2 43 7 50 12 6 5 18 10 26 10 8 0 26 3 40 7 14 3 32
8 40 10 8 2 16 4 18 5 1 2 5 3 10 4 4 1 13 5 21 10 10 6 12 5 7 -3 -4 -6 7 -4
26 6 18 10 42 18 53 17 11 0 29 7 39 15 14 12 17 12 11 2 -6 -11 -5 -12 6 -5
8 5 17 9 22 10 4 1 9 3 12 4 3 1 10 4 15 5 6 1 11 3 13 5 2 2 18 6 56 14 14 3
27 9 30 13 3 5 11 8 16 8 6 0 28 6 50 13 53 18 59 20 65 19 3 0 16 6 30 13 13
7 33 14 45 15 34 4 36 5 31 13 -2 4 7 9 21 10 13 1 30 5 36 9 7 4 14 8 17 9 8
1 42 15 77 30 17 8 37 14 44 14 7 0 21 8 32 18 13 10 17 12 12 3 -6 -11 -2
-10 16 2 13 9 31 17 41 17 10 0 18 5 18 11 0 5 4 8 9 4 5 -3 12 -1 16 5 3 5
15 10 26 10 11 0 22 6 25 14 3 8 12 12 20 9 8 -3 14 0 14 6 0 6 3 10 8 10 4
-1 10 0 15 1 4 1 10 3 15 4 4 1 22 10 40 19 17 10 32 15 32 12 0 -4 7 1 16 9
8 9 24 16 35 16 10 0 19 4 19 9 0 5 14 12 30 16 17 4 30 11 30 16 0 6 5 7 10
4 6 -3 10 -1 10 5 0 6 5 8 10 5 6 -3 10 -1 10 5 0 6 5 8 10 5 6 -3 13 1 16 9
3 9 10 14 15 11 7 -5 47 12 59 26 9 9 105 53 113 51 4 -1 7 3 7 10 0 6 3 9 6
5 3 -3 15 3 27 13 11 11 24 17 29 14 4 -3 8 0 8 6 0 6 5 8 10 5 6 -3 10 -1 10
5 0 6 5 8 10 5 6 -3 10 2 10 11 0 10 3 15 6 11 9 -8 64 21 64 33 0 6 3 9 8 8
13 -2 46 14 71 36 13 12 21 15 17 8 -7 -11 -4 -11 13 0 12 7 21 16 21 20 0 5
7 8 15 8 8 0 15 4 15 9 0 5 11 12 25 15 16 4 23 11 19 18 -4 7 -3 8 4 4 6 -4
20 2 32 14 11 11 20 17 20 14 0 -3 7 2 16 10 8 9 22 16 29 16 8 0 18 6 22 14
4 7 24 21 43 31 18 10 40 23 47 29 32 28 43 36 43 31 0 -3 10 3 22 15 12 11
25 20 28 20 4 0 20 11 36 25 16 14 45 35 64 47 19 12 39 28 43 35 4 7 14 13
22 13 8 0 20 9 27 20 7 11 18 20 24 20 16 0 55 36 47 44 -3 3 1 6 9 6 8 0 27
11 42 25 15 14 31 25 36 25 5 0 14 9 20 20 6 11 15 18 19 15 5 -3 12 2 15 11
4 9 9 14 12 11 7 -7 44 29 44 43 0 6 4 9 8 8 9 -3 32 16 99 79 18 17 33 28 33
25 0 -4 5 1 11 11 6 9 14 15 20 12 5 -4 9 1 9 9 0 9 4 16 8 16 5 0 48 37 95
83 48 46 87 81 87 78 1 -3 7 5 15 19 8 14 14 22 15 18 0 -5 8 0 18 10 11 9 17
20 15 25 -2 4 1 7 7 7 15 0 40 25 40 41 0 7 3 10 6 6 4 -3 21 12 39 33 18 21
35 36 39 33 3 -4 6 -1 6 6 0 7 15 27 33 44 17 16 31 34 29 39 -1 4 3 7 10 6 7
-2 12 3 13 10 0 6 3 11 6 10 3 -2 19 13 35 32 16 19 37 42 46 51 10 9 18 19
18 22 0 4 20 27 45 53 25 25 42 50 39 55 -3 5 -1 8 4 7 11 -4 112 115 112 132
0 6 5 8 10 5 6 -3 10 -1 10 4 0 6 8 20 18 30 31 35 47 55 47 61 0 3 13 19 28
37 16 17 28 33 27 35 -2 2 13 20 31 41 19 21 34 42 34 46 0 4 8 15 18 25 9 10
14 22 11 28 -4 6 -3 8 3 5 5 -4 16 6 24 21 8 15 22 33 32 40 9 7 17 19 17 25
0 7 11 24 24 39 14 14 22 29 19 32 -4 3 -1 6 5 6 7 0 12 9 12 21 0 11 5 17 10
14 6 -3 10 -1 10 5 0 7 9 23 20 37 11 14 17 30 13 37 -3 6 -3 8 1 4 9 -8 98
121 91 132 -3 4 2 10 10 14 8 3 15 12 15 21 0 8 5 15 11 15 5 0 7 4 4 10 -3 5
-1 10 4 10 6 0 11 7 11 15 0 8 9 23 20 32 11 10 20 23 20 29 0 6 16 38 35 69
19 32 32 62 28 68 -3 6 -2 7 4 4 5 -3 22 22 38 56 16 34 33 65 38 68 4 3 9 12
11 20 1 8 12 33 24 55 11 23 18 45 14 49 -4 5 -2 5 5 2 10 -6 38 46 34 66 0 4
4 7 11 7 6 0 8 3 5 6 -4 4 3 20 14 35 11 16 18 29 14 29 -3 0 6 20 19 45 14
25 23 45 20 45 -4 0 -1 6 5 13 6 8 8 17 4 20 -3 4 -1 7 5 7 7 0 12 9 12 20 0
11 5 20 10 20 6 0 10 9 10 19 0 11 5 23 11 26 6 4 8 13 5 21 -3 8 -1 14 4 14
8 0 23 39 25 62 0 4 7 16 17 27 12 14 13 22 5 31 -9 10 -9 11 1 6 8 -5 12 0
12 13 0 11 5 23 10 26 6 3 10 15 10 26 0 10 4 19 10 19 5 0 7 7 4 15 -4 8 -1
15 6 15 6 0 9 4 6 8 -3 5 1 21 9 35 8 15 14 30 15 32 0 3 3 12 5 20 3 8 7 22
10 30 2 8 5 17 5 20 0 3 8 24 16 47 9 24 17 48 18 53 1 6 7 19 13 30 5 11 9
30 8 42 -1 12 2 20 6 17 10 -6 22 52 14 66 -3 5 0 8 7 5 8 -3 14 4 15 20 6 56
8 65 16 65 4 0 5 4 2 10 -3 6 0 10 7 10 9 0 9 3 -2 10 -12 8 -12 10 -1 10 8 0
11 3 8 7 -4 3 0 17 8 30 9 13 13 28 10 33 -3 6 -3 16 2 23 4 6 8 15 9 20 1 4
2 8 4 10 3 4 10 41 13 69 1 16 6 28 11 28 4 0 6 6 3 14 -3 7 0 19 6 25 6 6 7
11 3 11 -5 0 -2 8 5 17 11 13 11 15 1 9 -11 -6 -11 -4 -3 10 11 19 36 133 33
147 -1 4 2 7 6 7 4 0 8 8 8 18 1 23 16 116 30 177 3 17 7 42 8 57 1 15 5 30 9
34 12 12 8 26 -5 18 -7 -4 -5 1 4 12 11 12 15 28 11 42 -3 15 -1 22 8 22 11 0
11 2 -1 10 -8 5 -10 10 -4 10 6 0 10 10 9 23 -1 12 2 30 7 41 8 14 7 17 -3 11
-8 -5 -10 -4 -5 4 4 6 9 21 11 34 8 47 16 115 21 173 7 81 9 92 17 100 3 4 2
15 -4 25 -5 11 -6 19 -2 19 5 0 8 30 8 66 0 36 2 67 5 69 3 2 5 33 5 69 0 37
4 66 10 66 6 0 3 5 -5 10 -12 8 -12 10 -1 10 10 0 11 3 2 13 -6 8 -7 17 -3 21
10 11 11 516 0 544 -5 15 -4 21 2 17 13 -8 13 1 0 26 -8 13 -7 19 0 19 7 0 8
6 0 19 -7 14 -7 22 0 26 6 4 7 12 3 18 -4 7 -8 28 -9 47 -1 19 -3 57 -5 83 -1
26 -6 50 -11 53 -4 3 -3 14 2 25 8 14 7 19 -2 19 -9 0 -9 3 2 10 8 5 10 10 5
10 -6 0 -11 21 -10 50 1 28 -2 50 -6 50 -3 0 -5 18 -4 40 1 22 0 40 -4 40 -3
0 -7 15 -8 33 -4 87 -7 107 -16 107 -5 0 -5 6 2 13 6 8 8 17 4 21 -8 8 -12 26
-17 87 -2 26 -6 51 -9 56 -6 9 -10 32 -22 133 -2 14 -4 27 -5 30 -1 3 -3 10
-5 15 -1 6 -3 12 -4 15 -2 3 -5 19 -7 35 -6 42 -11 70 -13 70 -3 0 -5 11 -15
65 -7 34 -13 60 -16 70 -1 3 -3 10 -5 15 -1 6 -3 12 -4 15 -3 6 -13 70 -14 88
0 6 -3 12 -7 12 -4 0 -7 14 -8 31 0 17 -6 37 -12 45 -7 7 -10 21 -6 29 3 8 1
15 -5 15 -6 0 -9 7 -6 15 4 8 2 17 -4 20 -5 4 -7 10 -4 15 3 5 1 11 -5 15 -6
4 -8 11 -5 16 4 5 0 9 -7 9 -9 0 -9 3 2 10 8 5 10 10 4 10 -7 0 -15 17 -19 38
-5 20 -10 44 -12 52 -2 8 -5 21 -5 28 -1 6 -4 12 -8 12 -4 0 -7 7 -8 15 -1 8
-3 22 -4 30 -1 8 -5 15 -10 15 -4 0 -8 14 -8 30 0 17 -5 30 -10 30 -6 0 -9 3
-9 8 1 4 0 10 -1 15 -3 8 -4 12 -15 52 -4 17 -13 36 -19 44 -6 8 -9 15 -7 15
7 2 -23 91 -34 98 -5 4 -6 8 -1 8 5 0 3 7 -4 15 -7 8 -10 15 -7 15 4 0 -7 30
-23 66 -17 36 -30 72 -30 80 0 13 -18 52 -30 64 -3 3 -7 12 -9 20 -12 45 -27
80 -33 80 -5 0 -8 6 -8 14 0 8 -13 40 -29 70 -16 31 -23 53 -17 49 6 -3 3 3
-7 14 -9 11 -14 23 -10 26 3 4 2 7 -4 7 -6 0 -14 10 -18 23 -10 30 -8 25 -35
82 -13 28 -28 52 -32 53 -4 2 -8 12 -8 23 0 10 -4 19 -10 19 -5 0 -10 9 -10
20 0 11 -4 20 -9 20 -9 0 -24 38 -22 53 1 4 -6 10 -14 13 -8 3 -12 11 -8 17 3
5 -2 16 -12 24 -11 7 -15 13 -10 13 5 0 0 7 -11 16 -10 8 -13 13 -6 9 6 -3 12
-1 12 4 0 6 -4 11 -10 11 -5 0 -10 7 -10 15 0 8 -4 15 -10 15 -5 0 -10 6 -10
14 0 7 -7 19 -15 26 -8 7 -12 16 -9 21 3 5 0 9 -6 9 -6 0 -8 5 -5 10 3 6 2 10
-3 10 -5 0 -17 18 -28 40 -10 22 -23 40 -27 40 -5 0 -6 4 -2 9 3 6 -3 14 -12
20 -10 5 -17 12 -15 15 6 15 1 26 -10 20 -6 -4 -8 -3 -4 4 3 6 0 17 -8 25 -8
8 -12 17 -9 21 4 3 1 6 -5 6 -6 0 -14 9 -17 20 -4 11 -11 18 -16 15 -5 -3 -6
0 -3 8 2 7 -6 24 -18 38 -13 13 -32 41 -42 62 -11 20 -23 37 -29 37 -5 0 -7 6
-4 13 3 8 -3 20 -14 28 -10 7 -19 19 -19 26 0 7 -3 13 -7 13 -5 0 -19 18 -33
40 -13 22 -28 40 -32 40 -4 0 -8 6 -8 13 0 11 -47 78 -84 120 -9 9 -16 19 -16
22 0 3 -7 13 -15 22 -62 74 -129 162 -137 180 -6 13 -19 25 -30 29 -10 3 -16
9 -13 14 3 5 -6 17 -20 28 -13 11 -22 22 -18 25 3 4 -2 9 -11 13 -9 3 -16 12
-16 20 0 8 -7 14 -15 14 -8 0 -15 4 -15 8 0 16 -37 52 -45 44 -5 -4 -5 -2 -2
4 3 5 -10 28 -29 49 -19 21 -34 42 -34 47 0 4 -7 8 -17 8 -9 0 -14 3 -10 6 3
3 -12 22 -33 42 -22 19 -37 39 -34 44 3 4 0 8 -6 8 -15 0 -41 26 -33 34 4 3 1
6 -6 6 -15 0 -41 25 -41 39 0 5 -9 13 -20 16 -11 4 -19 9 -17 13 2 4 -14 24
-35 44 -21 21 -38 36 -38 34 0 -2 -45 41 -99 96 -55 54 -103 98 -108 98 -4 0
-24 18 -43 40 -19 22 -39 40 -43 40 -5 0 -26 18 -48 40 -21 21 -39 36 -39 32
0 -4 -14 8 -30 27 -17 18 -30 30 -30 26 0 -5 -9 2 -20 15 -11 13 -20 20 -20
16 0 -4 -11 4 -24 18 -13 15 -28 26 -35 26 -6 0 -11 7 -11 15 0 8 -3 14 -7 13
-15 -3 -43 14 -37 23 5 8 -2 11 -22 8 -3 0 -15 11 -28 25 -12 14 -25 26 -28
26 -4 0 -19 11 -34 25 -14 13 -30 22 -35 19 -5 -3 -9 2 -9 11 0 9 -4 13 -10
10 -5 -3 -10 -1 -10 5 0 6 -4 8 -10 5 -5 -3 -10 2 -10 11 0 10 -3 15 -6 11 -3
-3 -15 3 -27 14 -11 10 -27 19 -34 19 -7 0 -13 3 -13 8 0 4 -18 18 -40 32 -22
14 -40 28 -40 32 0 5 -7 8 -15 8 -9 0 -18 7 -21 15 -4 8 -10 12 -15 9 -5 -3
-9 -1 -9 4 0 5 -13 15 -30 22 -16 7 -30 16 -30 21 0 5 -7 9 -15 9 -8 0 -15 5
-15 12 0 6 -3 8 -7 5 -3 -4 -17 3 -30 15 -13 12 -23 18 -23 14 0 -4 -7 -1 -15
6 -34 31 -43 36 -49 31 -3 -4 -6 -1 -6 5 0 7 -7 12 -15 12 -8 0 -15 5 -15 10
0 6 -6 10 -14 10 -7 0 -19 7 -26 15 -7 8 -16 12 -21 9 -5 -3 -9 0 -9 5 0 6 -7
11 -15 11 -9 0 -18 7 -21 15 -4 8 -9 13 -13 11 -9 -6 -91 40 -84 48 3 3 -3 6
-15 6 -12 0 -22 4 -22 9 0 5 -12 14 -27 20 -16 6 -35 15 -43 19 -46 27 -80 42
-80 36 0 -4 -6 0 -13 11 -8 10 -19 15 -24 12 -6 -4 -14 0 -17 9 -3 8 -10 12
-16 9 -5 -3 -10 -2 -10 2 0 9 -59 37 -72 34 -5 0 -8 4 -8 9 0 6 -7 10 -15 10
-8 0 -15 4 -15 10 0 5 -7 7 -15 4 -8 -4 -15 -1 -15 6 0 6 -4 9 -9 6 -5 -4 -11
-1 -13 4 -2 6 -13 12 -26 13 -12 0 -22 5 -22 9 0 4 -7 8 -15 8 -8 0 -15 5 -15
11 0 5 -4 8 -8 5 -5 -3 -39 10 -75 28 -37 19 -67 32 -67 29 0 -3 -7 1 -17 8
-9 8 -18 13 -20 11 -2 -1 -16 4 -32 12 -16 9 -31 12 -35 9 -3 -4 -6 -1 -6 5 0
7 -3 11 -7 10 -5 -1 -21 4 -36 10 -16 7 -33 9 -39 6 -6 -4 -8 -3 -5 3 5 8 -57
36 -83 38 -3 1 -15 6 -27 13 -13 7 -23 9 -23 5 0 -4 -4 -3 -8 2 -8 12 -89 40
-109 38 -7 0 -13 3 -13 7 0 4 -21 13 -47 20 -56 15 -53 15 -75 24 -9 4 -22 8
-30 10 -7 1 -18 5 -24 8 -6 4 -24 9 -40 12 -16 3 -30 10 -32 16 -2 5 -7 8 -12
5 -4 -3 -28 2 -54 9 -25 8 -46 12 -46 9 0 -3 -10 1 -22 9 -13 7 -35 13 -50 13
-15 -1 -25 2 -22 6 2 4 0 10 -6 14 -5 3 -10 1 -10 -6 0 -8 -4 -8 -15 1 -8 7
-24 10 -35 7 -11 -3 -18 -2 -16 2 5 8 -72 30 -116 33 -16 1 -28 5 -28 8 0 3
-14 7 -31 8 -18 1 -37 6 -43 9 -6 4 -17 8 -26 9 -8 1 -26 4 -40 7 -50 11 -136
28 -170 33 -19 3 -42 8 -50 11 -17 7 -40 10 -92 14 -21 2 -38 6 -38 9 0 3 -8
6 -17 7 -67 3 -103 8 -103 15 0 5 -8 4 -18 -1 -10 -5 -24 -6 -33 0 -9 4 -43
10 -76 12 -33 2 -64 6 -69 9 -8 4 -48 8 -126 12 -15 1 -30 4 -34 8 -3 4 -15 3
-25 -3 -11 -5 -19 -6 -19 -2 0 7 -64 13 -187 16 -29 1 -53 4 -53 7 0 3 -27 5
-60 5 -33 0 -60 -3 -60 -8 0 -4 -6 -5 -12 0 -20 12 -389 13 -381 0 4 -6 1 -7
-8 -1 -17 11 -69 12 -90 2 -9 -4 -20 -3 -26 3 -5 5 -12 7 -14 4z m633 -409 c5
-8 8 -8 8 0 0 5 12 9 28 7 77 -10 101 -12 150 -14 29 -1 55 -6 58 -11 3 -4 13
-5 22 0 15 6 47 8 62 2 12 -4 47 -10 78 -12 18 -1 36 -6 38 -10 3 -4 14 -3 25
2 10 6 19 7 19 3 0 -4 24 -9 52 -11 29 -2 56 -9 60 -15 6 -9 8 -9 8 1 0 8 5
10 12 6 7 -4 28 -9 48 -11 39 -4 75 -11 75 -13 0 -1 14 -3 30 -5 17 -1 30 -3
30 -5 0 -1 14 -3 30 -5 17 -1 30 -3 30 -4 0 -4 38 -10 72 -13 18 -2 33 -5 33
-8 0 -3 19 -6 42 -8 23 -1 45 -6 48 -10 3 -5 15 -8 28 -9 12 0 24 -2 27 -3 3
-1 10 -4 15 -5 6 -1 11 -3 13 -5 2 -2 28 -7 72 -14 17 -2 44 -9 62 -14 17 -6
34 -8 37 -4 3 3 6 1 6 -4 0 -5 8 -11 18 -12 20 -2 56 -10 60 -12 1 -2 5 -3 10
-4 4 -2 27 -8 52 -15 25 -7 50 -14 55 -16 6 -1 17 -4 25 -7 97 -32 122 -38
132 -32 7 4 8 3 4 -4 -7 -11 7 -16 42 -15 6 1 12 -4 12 -9 0 -6 7 -8 15 -4 8
3 15 1 15 -5 0 -6 5 -7 10 -4 6 3 10 1 10 -6 0 -7 3 -10 6 -7 3 3 35 -6 72
-19 37 -14 75 -26 85 -26 9 -1 17 -5 17 -10 0 -4 5 -5 10 -2 6 3 10 1 10 -5 0
-6 5 -8 10 -5 6 3 10 1 10 -4 0 -6 3 -10 8 -9 9 2 45 -9 92 -29 19 -8 44 -19
55 -23 11 -4 36 -15 55 -23 73 -31 105 -44 111 -43 4 1 16 -7 27 -17 12 -11
26 -16 31 -12 6 3 11 2 11 -3 0 -13 56 -33 66 -24 4 4 4 1 -1 -7 -6 -11 -3
-13 13 -9 12 4 20 2 16 -3 -3 -5 4 -9 16 -9 14 0 19 -4 14 -12 -5 -8 -2 -9 9
-5 10 3 17 3 17 -2 0 -9 54 -34 66 -31 4 1 10 -3 13 -8 3 -5 27 -19 54 -31 26
-12 47 -26 47 -32 0 -6 5 -7 10 -4 6 3 17 -1 26 -9 9 -9 20 -14 25 -11 5 4 9
1 9 -4 0 -6 7 -11 15 -11 8 0 15 -4 15 -10 0 -5 3 -9 8 -8 4 1 18 -5 32 -14
14 -9 32 -18 40 -20 8 -2 22 -11 31 -20 8 -9 27 -20 42 -23 15 -4 24 -11 21
-16 -3 -5 4 -9 15 -9 12 0 21 -5 21 -11 0 -6 6 -9 13 -6 7 3 19 -4 26 -15 7
-11 15 -18 18 -15 3 3 14 -3 26 -14 11 -10 27 -19 34 -19 7 0 13 -4 13 -10 0
-5 7 -10 15 -10 8 0 15 -5 15 -11 0 -6 7 -8 16 -5 8 3 13 2 10 -3 -3 -4 10
-17 29 -27 19 -10 35 -22 35 -27 0 -4 5 -5 10 -2 6 3 13 -1 16 -9 3 -9 12 -16
18 -16 7 0 22 -9 34 -20 12 -11 26 -20 32 -20 5 0 10 -4 10 -10 0 -5 6 -10 14
-10 8 0 17 -7 20 -16 4 -9 9 -14 12 -11 4 3 12 1 19 -6 21 -21 65 -52 70 -50
3 2 18 -11 34 -27 15 -17 33 -30 40 -30 6 0 11 -4 11 -10 0 -5 6 -10 14 -10 8
0 17 -7 20 -16 3 -8 10 -12 16 -9 5 3 10 -2 10 -11 0 -10 3 -14 6 -11 4 4 15
-3 25 -15 11 -11 19 -18 19 -14 0 4 11 -4 24 -18 13 -15 26 -26 30 -26 3 0 14
-8 24 -17 39 -37 73 -63 83 -63 5 0 7 -4 4 -10 -3 -5 1 -10 9 -10 8 0 18 -10
21 -21 6 -17 9 -19 16 -8 7 11 9 11 9 -2 0 -9 11 -22 25 -29 14 -7 25 -19 25
-27 0 -7 3 -12 8 -11 9 3 39 -22 112 -94 32 -32 64 -58 70 -58 6 0 8 -5 5 -11
-4 -6 2 -13 14 -16 12 -3 21 -12 21 -19 0 -8 11 -20 25 -26 14 -6 25 -15 25
-20 0 -5 7 -16 15 -24 8 -9 15 -13 15 -9 0 4 12 -8 27 -27 15 -18 52 -57 82
-85 29 -29 50 -53 45 -53 -4 0 7 -11 26 -25 19 -14 30 -25 25 -25 -4 0 4 -11
19 -25 14 -13 26 -29 26 -35 0 -6 5 -8 10 -5 6 3 10 3 10 -2 0 -4 14 -24 30
-43 16 -19 30 -39 30 -43 0 -5 4 -6 9 -3 4 3 13 -6 19 -19 7 -14 16 -25 22
-25 5 0 10 -6 10 -13 0 -7 9 -19 19 -27 11 -7 18 -17 15 -22 -3 -4 2 -8 11 -8
9 0 13 -5 10 -10 -3 -6 1 -13 9 -16 9 -3 16 -10 16 -16 0 -5 13 -23 30 -41 16
-18 30 -37 30 -44 0 -7 9 -17 21 -23 11 -7 18 -14 15 -17 -2 -3 6 -15 20 -28
13 -12 24 -27 24 -33 0 -6 3 -12 8 -14 11 -5 64 -78 56 -78 -4 0 5 -11 20 -25
15 -14 23 -25 19 -25 -4 -1 3 -10 16 -20 13 -11 20 -20 17 -20 -5 0 69 -117
94 -147 6 -7 10 -17 10 -23 0 -5 5 -10 10 -10 6 0 10 -7 10 -15 0 -8 5 -15 12
-15 6 0 9 -3 5 -6 -5 -6 0 -15 30 -48 7 -8 9 -16 6 -20 -4 -3 0 -6 7 -6 7 0
11 -3 7 -6 -3 -3 3 -15 14 -27 10 -11 19 -30 19 -41 0 -10 3 -16 7 -13 7 7 38
-51 35 -65 -1 -5 3 -8 9 -8 5 0 15 -13 20 -30 6 -16 15 -30 20 -30 5 0 9 -7 9
-15 0 -8 5 -15 11 -15 5 0 8 -4 4 -9 -3 -5 2 -17 11 -25 8 -9 13 -16 9 -16 -3
0 3 -13 15 -30 12 -16 18 -30 13 -30 -4 0 -2 -4 5 -9 7 -4 14 -17 15 -29 0
-11 4 -19 8 -17 3 3 12 -13 19 -35 7 -22 17 -37 21 -34 5 3 9 -1 9 -9 0 -7 10
-33 22 -58 12 -24 21 -47 20 -51 -1 -5 2 -8 8 -8 5 0 10 -9 10 -20 0 -11 5
-20 10 -20 6 0 10 -9 10 -21 0 -11 9 -33 20 -49 11 -15 17 -30 13 -34 -3 -3
-1 -6 6 -6 7 0 10 -4 7 -9 -3 -4 8 -34 25 -64 17 -31 31 -66 32 -77 1 -11 5
-20 9 -20 4 0 8 -9 8 -19 0 -11 4 -22 9 -25 4 -3 14 -26 21 -51 7 -25 17 -45
22 -45 5 0 7 -4 4 -8 -3 -5 1 -20 9 -35 8 -15 12 -27 10 -27 -2 0 4 -20 15
-44 10 -24 16 -47 13 -50 -4 -3 -1 -6 5 -6 7 0 12 -11 12 -25 0 -14 4 -25 8
-25 4 0 9 -9 10 -20 4 -44 6 -50 14 -50 5 0 7 -4 4 -8 -3 -5 1 -20 9 -35 7
-14 11 -28 7 -31 -3 -3 0 -6 8 -6 10 0 10 -4 -1 -17 -8 -9 -9 -14 -2 -10 11 7
14 -2 27 -68 2 -11 10 -33 16 -50 7 -16 14 -43 17 -60 3 -16 10 -36 15 -42 6
-7 8 -13 4 -13 -3 0 -1 -11 4 -26 6 -14 13 -39 16 -57 7 -41 10 -49 17 -67 4
-8 8 -30 10 -48 2 -17 7 -35 10 -39 4 -3 7 -20 7 -38 0 -17 5 -36 12 -43 7 -7
8 -12 4 -12 -5 0 -3 -7 4 -15 9 -11 9 -15 1 -15 -7 0 -9 -5 -4 -12 4 -7 8 -16
9 -20 1 -5 2 -9 3 -10 1 -2 4 -18 7 -37 6 -47 11 -73 18 -91 3 -8 8 -33 10
-55 3 -22 9 -64 14 -92 5 -29 7 -53 4 -53 -2 0 1 -7 8 -15 10 -12 10 -15 0
-15 -8 0 -9 -4 -3 -12 5 -7 9 -20 8 -28 0 -8 4 -19 10 -23 7 -6 6 -10 -3 -14
-10 -4 -10 -8 -1 -19 6 -8 8 -14 5 -14 -4 0 -2 -9 4 -20 8 -14 8 -20 0 -20 -6
0 -8 -5 -3 -12 4 -7 8 -22 8 -33 0 -11 2 -24 5 -30 3 -5 5 -27 5 -47 0 -21 4
-38 8 -38 4 0 3 -9 -3 -20 -6 -11 -7 -20 -3 -20 5 0 10 -33 12 -72 6 -118 9
-163 11 -163 1 0 3 -71 5 -157 2 -86 6 -161 9 -167 3 -5 0 -12 -6 -15 -11 -5
-11 -7 0 -12 6 -3 9 -10 6 -16 -4 -5 -7 -88 -8 -184 -1 -95 -5 -176 -9 -180
-3 -4 -2 -14 3 -24 5 -10 6 -20 3 -24 -9 -8 -10 -14 -17 -127 -7 -102 -11
-147 -20 -224 -9 -74 -11 -84 -19 -91 -4 -4 -2 -13 4 -21 6 -7 7 -13 2 -13 -5
0 -9 -18 -9 -40 1 -22 -2 -40 -5 -40 -3 0 -6 -12 -7 -27 -5 -69 -8 -89 -14
-99 -4 -6 -8 -27 -10 -47 -1 -21 -7 -37 -13 -37 -5 0 -4 -4 4 -9 8 -5 9 -11 3
-15 -6 -4 -9 -15 -7 -26 2 -11 0 -20 -5 -20 -4 0 -8 -10 -8 -22 0 -13 -3 -36
-7 -53 -4 -16 -8 -39 -10 -50 -1 -11 -3 -20 -4 -20 -4 0 -11 -36 -16 -70 -2
-16 -8 -43 -14 -58 -6 -15 -10 -31 -10 -35 1 -4 0 -10 -1 -14 -1 -5 -4 -12 -5
-18 -1 -5 -4 -12 -5 -15 -1 -3 -4 -14 -5 -25 -1 -11 -4 -22 -5 -25 -1 -3 -4
-9 -5 -15 -1 -5 -4 -12 -5 -15 -1 -3 -4 -9 -5 -15 -1 -5 -3 -12 -4 -15 0 -3
-1 -7 -2 -10 0 -2 -5 -19 -10 -37 -15 -48 -20 -71 -21 -85 -1 -7 -5 -13 -10
-13 -5 0 -6 -5 -2 -11 3 -6 0 -15 -7 -20 -12 -7 -11 -9 1 -9 12 0 12 -2 2 -9
-7 -4 -16 -23 -19 -42 -2 -19 -8 -38 -13 -44 -7 -10 -23 -62 -24 -80 -1 -5 -4
-12 -8 -15 -4 -3 -9 -15 -11 -25 -2 -11 -9 -31 -14 -45 -6 -14 -9 -28 -6 -32
2 -5 0 -8 -5 -8 -5 0 -9 -7 -10 -15 -1 -8 -3 -22 -4 -30 -1 -8 -5 -15 -10 -15
-5 0 -7 -4 -3 -9 3 -5 1 -12 -5 -16 -6 -4 -8 -11 -5 -16 4 -5 1 -9 -5 -9 -7 0
-10 -6 -7 -14 3 -8 2 -16 -2 -18 -7 -3 -48 -103 -54 -133 -1 -5 -6 -13 -10
-16 -4 -3 -9 -16 -10 -27 -1 -12 -4 -22 -8 -22 -4 0 -10 -14 -14 -30 -4 -17
-11 -30 -16 -30 -6 0 -8 -4 -4 -9 3 -5 1 -12 -5 -16 -6 -4 -8 -11 -5 -16 4 -5
1 -9 -5 -9 -7 0 -10 -6 -7 -14 3 -8 -1 -17 -10 -20 -8 -4 -13 -13 -10 -20 3
-8 1 -16 -4 -18 -6 -2 -11 -10 -12 -19 -2 -9 -11 -28 -20 -42 -10 -15 -15 -27
-11 -27 4 0 1 -7 -6 -15 -7 -8 -9 -15 -4 -15 5 0 3 -4 -5 -9 -8 -5 -16 -18
-17 -28 -2 -9 -8 -19 -13 -21 -6 -2 -11 -10 -11 -17 0 -13 -42 -97 -61 -121
-5 -6 -6 -14 -2 -17 3 -4 1 -7 -6 -7 -7 0 -10 -4 -7 -9 3 -5 -1 -14 -9 -21 -8
-7 -12 -16 -10 -21 3 -4 -2 -12 -11 -17 -9 -5 -16 -12 -16 -15 0 -17 -11 -47
-18 -47 -7 0 -34 -51 -32 -61 1 -4 -8 -15 -18 -24 -11 -10 -20 -22 -20 -27 0
-5 -24 -49 -54 -97 -30 -49 -52 -92 -50 -95 2 -3 1 -4 -2 -1 -4 2 -31 -35 -61
-83 -30 -48 -60 -90 -66 -94 -7 -4 -8 -8 -4 -8 5 0 2 -6 -5 -14 -7 -7 -20 -24
-28 -36 -8 -13 -24 -32 -35 -43 -12 -11 -14 -17 -5 -13 9 5 8 2 -2 -7 -10 -8
-18 -17 -18 -21 0 -4 -11 -19 -25 -34 -14 -15 -25 -32 -25 -38 0 -7 -7 -15
-16 -18 -9 -4 -14 -9 -11 -12 3 -3 -8 -20 -24 -36 -16 -17 -29 -38 -29 -46 0
-9 -3 -12 -7 -9 -7 8 -39 -34 -35 -45 1 -5 -5 -8 -15 -8 -9 0 -14 -3 -10 -6 6
-6 -10 -28 -58 -78 -16 -17 -29 -33 -30 -36 0 -3 -3 -4 -7 -2 -7 2 -12 -13 -9
-30 0 -4 -8 -10 -19 -13 -11 -4 -20 -12 -20 -18 0 -7 -18 -29 -39 -49 -22 -20
-37 -39 -34 -42 3 -3 -2 -8 -11 -12 -9 -3 -16 -13 -16 -21 0 -8 -5 -11 -10 -8
-6 3 -13 -1 -16 -10 -4 -9 -51 -61 -104 -116 -54 -54 -96 -99 -94 -99 2 0 -4
-8 -13 -18 -10 -11 -21 -17 -25 -15 -4 2 -10 -6 -13 -18 -4 -11 -9 -18 -12
-16 -2 3 -36 -26 -74 -64 -38 -38 -74 -69 -80 -69 -6 0 -8 -3 -6 -7 2 -5 -7
-18 -20 -30 -13 -12 -23 -20 -23 -16 0 3 -8 -4 -19 -15 -10 -12 -21 -19 -25
-15 -3 3 -6 -2 -6 -12 0 -10 -3 -16 -6 -12 -4 3 -18 -7 -32 -23 -15 -17 -30
-30 -35 -30 -13 0 -37 -27 -30 -34 4 -3 -1 -6 -10 -6 -9 0 -21 -8 -26 -17 -6
-10 -11 -14 -11 -10 0 4 -17 -9 -38 -30 -40 -40 -45 -43 -63 -43 -5 0 -7 -4
-4 -10 3 -5 -1 -10 -10 -10 -10 0 -13 -5 -9 -12 4 -6 3 -8 -3 -5 -6 4 -22 -3
-35 -16 -34 -30 -97 -80 -117 -91 -9 -5 -22 -16 -29 -23 -7 -7 -17 -13 -20
-13 -4 0 -20 -11 -35 -25 -15 -14 -27 -23 -27 -20 0 3 -6 1 -12 -5 -7 -6 -31
-24 -53 -40 -22 -16 -45 -34 -52 -40 -7 -5 -17 -10 -23 -10 -5 0 -10 -4 -10
-10 0 -5 -7 -10 -15 -10 -8 0 -15 -5 -15 -11 0 -5 -5 -7 -10 -4 -6 3 -13 0
-16 -8 -3 -9 -16 -18 -30 -21 -13 -4 -24 -10 -24 -15 0 -5 -13 -14 -30 -21
-16 -7 -30 -17 -30 -22 0 -5 -4 -6 -10 -3 -5 3 -10 1 -10 -4 0 -6 -5 -11 -11
-11 -6 0 -17 -7 -26 -15 -8 -8 -18 -13 -23 -10 -4 3 -10 -2 -14 -10 -3 -8 -13
-15 -21 -15 -10 0 -13 -5 -9 -12 5 -7 3 -8 -6 -3 -7 4 -15 4 -19 -1 -7 -11
-63 -38 -73 -36 -5 1 -8 -3 -8 -9 0 -5 -16 -17 -35 -25 -19 -8 -35 -19 -35
-24 0 -6 -3 -10 -7 -9 -17 2 -53 -14 -53 -24 0 -6 -3 -7 -6 -4 -4 4 -19 -2
-34 -13 -15 -11 -30 -17 -34 -13 -3 3 -6 1 -6 -5 0 -7 -9 -12 -19 -12 -11 0
-21 -4 -23 -9 -1 -5 -10 -11 -18 -13 -8 -2 -21 -9 -28 -16 -8 -7 -17 -10 -22
-7 -5 3 -11 1 -15 -5 -7 -11 -116 -64 -127 -62 -5 1 -8 -3 -8 -10 0 -6 -3 -8
-7 -5 -3 4 -15 -1 -26 -10 -11 -10 -17 -12 -13 -5 11 19 -1 14 -25 -10 -12
-13 -19 -18 -16 -12 4 6 -26 -4 -66 -24 -39 -19 -78 -35 -84 -35 -7 0 -13 -4
-13 -9 0 -5 -4 -7 -9 -3 -5 3 -12 1 -16 -5 -3 -5 -15 -10 -25 -10 -10 0 -25
-7 -33 -15 -8 -8 -17 -12 -20 -9 -3 3 -13 1 -24 -4 -41 -21 -95 -42 -108 -42
-8 0 -15 -5 -15 -11 0 -5 -4 -7 -10 -4 -5 3 -10 1 -10 -5 0 -6 -4 -8 -10 -5
-6 3 -16 3 -23 -2 -6 -4 -16 -8 -22 -10 -5 -1 -20 -4 -33 -7 -12 -3 -28 -8
-35 -13 -6 -4 -16 -8 -22 -9 -5 -1 -29 -9 -52 -18 -24 -8 -43 -13 -43 -9 0 3
-6 1 -12 -5 -12 -10 -119 -42 -145 -44 -7 -1 -13 -5 -13 -10 0 -5 -5 -6 -10
-3 -6 4 -17 1 -25 -5 -8 -7 -15 -10 -15 -7 0 4 -18 0 -39 -8 -22 -7 -42 -11
-45 -8 -3 4 -6 1 -6 -6 0 -7 -4 -9 -10 -6 -5 3 -16 3 -22 -2 -7 -4 -21 -8 -30
-9 -10 -1 -19 -2 -20 -4 -3 -2 -14 -5 -83 -20 -50 -10 -76 -17 -85 -20 -3 -1
-9 -2 -14 -1 -5 1 -16 -1 -25 -5 -9 -4 -23 -9 -31 -10 -8 -2 -28 -6 -45 -9
-16 -3 -41 -7 -55 -9 -14 -2 -26 -5 -27 -6 -2 -1 -11 -3 -20 -4 -10 -1 -22 -4
-28 -7 -5 -3 -28 -7 -50 -8 -21 -1 -45 -7 -52 -13 -9 -8 -13 -7 -13 2 0 9 -3
10 -13 1 -8 -6 -37 -12 -65 -13 -29 -2 -52 -5 -52 -8 0 -4 -10 -6 -22 -7 -30
-1 -114 -10 -158 -17 -51 -9 -255 -27 -337 -30 -23 -1 -45 -4 -48 -8 -4 -4
-18 -3 -31 2 -13 5 -25 6 -28 2 -2 -4 -51 -7 -108 -7 -57 0 -106 -4 -110 -10
-5 -6 -8 -5 -8 4 0 11 -3 11 -15 1 -8 -7 -15 -9 -15 -4 0 5 -90 9 -200 9 -110
0 -200 2 -200 5 0 3 -11 5 -25 5 -14 0 -25 -4 -25 -8 0 -5 -5 -5 -12 -1 -13 8
-98 16 -195 18 -35 0 -63 4 -63 7 0 4 -15 7 -32 8 -81 2 -108 5 -108 10 0 3
-26 7 -58 9 -70 3 -83 5 -101 16 -10 7 -12 6 -6 -4 5 -9 4 -11 -4 -6 -6 4 -21
9 -34 11 -42 8 -102 17 -119 18 -10 1 -18 4 -18 7 0 3 -14 5 -30 4 -17 -1 -32
2 -35 6 -3 5 -16 7 -30 5 -14 -1 -25 1 -25 6 0 4 -9 6 -20 4 -11 -2 -20 -1
-20 3 0 5 -12 8 -27 9 -27 0 -78 9 -78 14 0 1 -9 3 -20 5 -26 4 -60 12 -60 14
0 1 -10 3 -22 6 -13 2 -33 6 -45 8 -13 3 -23 5 -23 6 0 2 -37 10 -62 12 -13 1
-23 5 -23 9 0 3 -6 6 -12 7 -40 3 -58 7 -58 12 0 4 -6 7 -12 8 -15 1 -52 10
-55 12 -2 2 -12 4 -23 5 -11 1 -22 3 -25 4 -3 0 -7 1 -10 1 -3 0 -19 7 -35 15
-17 9 -30 13 -30 10 0 -3 -16 1 -35 9 -20 9 -37 15 -40 16 -5 1 -10 2 -70 21
-22 7 -43 12 -47 11 -5 -1 -8 3 -8 9 0 6 -9 9 -20 6 -11 -3 -20 -1 -20 5 0 5
-5 6 -10 3 -6 -3 -10 -1 -10 6 0 7 -3 10 -6 6 -3 -3 -26 3 -50 13 -24 11 -45
20 -47 20 -1 0 -13 4 -27 7 -14 4 -27 6 -28 4 -2 -1 -10 6 -19 16 -8 10 -11
11 -7 3 7 -13 5 -13 -9 -2 -9 8 -20 11 -26 8 -5 -3 -12 1 -15 10 -4 9 -13 14
-21 10 -8 -3 -15 -1 -15 4 0 6 -9 10 -20 10 -11 0 -20 4 -20 8 0 4 -8 8 -17 9
-23 2 -131 51 -138 63 -3 5 -12 7 -20 3 -8 -3 -15 0 -15 6 0 6 -3 10 -7 9 -14
-4 -53 13 -53 23 0 5 -3 8 -8 7 -14 -3 -62 14 -62 23 0 5 -3 8 -7 7 -5 -1 -18
3 -29 10 -12 6 -24 8 -28 5 -3 -3 -6 -1 -6 5 0 10 -40 28 -49 23 -2 -2 -7 1
-10 6 -11 15 -68 43 -75 36 -3 -3 -6 1 -6 11 0 10 -5 14 -11 10 -6 -3 -14 -3
-18 2 -10 14 -49 34 -66 34 -9 0 -13 5 -10 10 3 6 -2 10 -12 10 -10 0 -27 7
-37 15 -10 8 -23 12 -29 8 -6 -3 -7 -1 -4 4 4 6 -7 16 -23 23 -17 7 -30 17
-30 22 0 5 -4 7 -9 3 -5 -3 -17 2 -25 11 -9 8 -16 13 -16 10 0 -5 -63 33 -86
53 -7 6 -15 7 -18 4 -3 -4 -6 -1 -6 5 0 7 -6 12 -13 12 -7 0 -23 9 -34 19 -12
11 -24 17 -27 14 -3 -4 -6 -1 -6 5 0 7 -7 12 -15 12 -8 0 -15 5 -15 10 0 6 -7
10 -15 10 -8 0 -15 5 -15 10 0 6 -6 10 -13 10 -7 0 -23 9 -35 20 -12 12 -22
17 -22 13 -1 -4 -8 1 -18 13 -9 11 -21 21 -27 22 -5 1 -18 9 -28 17 -9 8 -22
15 -27 15 -6 0 -10 5 -10 12 0 6 -3 9 -6 6 -3 -4 -14 1 -23 10 -34 33 -61 52
-61 44 0 -4 -5 1 -11 11 -5 9 -14 17 -20 17 -9 0 -20 8 -53 37 -8 7 -16 10
-19 7 -3 -3 -8 4 -12 15 -4 12 -12 18 -21 14 -9 -3 -14 1 -14 13 0 9 -3 15 -6
11 -4 -3 -12 -1 -19 6 -38 36 -67 57 -81 57 -8 0 -13 4 -9 9 3 6 -4 15 -15 21
-12 6 -30 19 -40 28 -70 65 -90 82 -95 82 -3 0 -21 15 -40 32 -18 18 -55 51
-81 73 -26 22 -71 64 -100 92 -28 29 -57 53 -64 53 -6 0 -8 5 -5 10 3 6 -4 14
-17 19 -13 6 -19 10 -15 10 12 1 -20 31 -33 31 -6 0 -9 4 -5 9 3 5 -4 12 -15
16 -11 3 -20 12 -20 20 0 8 -9 17 -20 20 -11 3 -20 10 -20 16 0 5 -40 50 -90
100 -50 50 -90 95 -90 99 0 4 -7 11 -16 14 -8 3 -12 10 -9 16 3 5 -1 10 -9 10
-9 0 -16 4 -16 10 0 5 -16 25 -35 44 -19 20 -35 39 -35 43 0 5 -9 14 -20 21
-11 7 -20 16 -20 22 0 5 -18 27 -39 49 -21 22 -37 42 -34 45 3 3 -2 8 -11 12
-9 3 -16 11 -16 16 0 6 -10 19 -22 29 -11 11 -18 19 -15 19 4 0 -1 8 -10 18
-10 10 -27 30 -38 46 -20 27 -44 59 -65 83 -6 7 -10 15 -10 18 0 3 -9 15 -20
27 -11 12 -20 26 -20 30 0 5 -4 6 -10 3 -6 -3 -7 1 -4 9 4 9 -1 18 -10 22 -9
3 -16 12 -16 20 0 8 -4 14 -9 14 -5 0 -12 8 -15 18 -3 9 -17 29 -30 43 -14 15
-22 30 -19 33 4 3 1 6 -6 6 -7 0 -9 4 -6 10 3 5 1 10 -4 10 -6 0 -11 7 -11 15
0 8 -4 15 -10 15 -5 0 -10 7 -10 15 0 8 -4 15 -10 15 -5 0 -10 7 -10 15 0 9
-7 18 -15 21 -8 4 -12 10 -9 15 3 5 0 9 -5 9 -6 0 -11 7 -11 15 0 9 -6 18 -14
21 -9 3 -12 12 -9 21 4 10 2 14 -4 10 -5 -3 -16 9 -23 28 -8 19 -17 35 -22 35
-4 0 -8 6 -8 14 0 7 -7 19 -15 26 -8 7 -12 16 -9 21 3 5 2 9 -3 9 -4 0 -17 18
-27 40 -11 22 -23 40 -28 40 -4 0 -7 3 -6 8 4 15 -14 52 -23 47 -5 -4 -9 2 -9
13 0 10 -8 27 -18 38 -9 10 -19 28 -20 39 -2 11 -8 22 -13 23 -5 2 -9 12 -9
23 0 10 -5 19 -11 19 -6 0 -8 7 -5 16 3 8 2 12 -4 9 -6 -3 -11 -1 -11 4 -1 6
-2 16 -3 21 0 6 -8 15 -16 20 -8 5 -11 10 -7 10 4 0 -4 20 -18 45 -14 25 -25
52 -25 60 0 8 -4 15 -10 15 -5 0 -10 9 -10 20 0 11 -4 20 -10 20 -5 0 -10 8
-10 18 0 10 -5 23 -12 30 -7 7 -8 12 -3 12 4 0 1 8 -8 18 -8 9 -16 19 -16 22
0 10 -38 101 -73 177 -6 11 -7 27 -3 34 5 7 4 10 -3 5 -9 -5 -21 14 -28 49 -1
6 -8 24 -15 40 -7 17 -12 33 -11 38 1 4 -3 7 -10 7 -6 0 -9 3 -5 6 3 4 0 19
-8 34 -8 15 -11 30 -8 34 4 3 2 6 -4 6 -5 0 -10 7 -11 15 -1 8 -3 22 -4 30 -1
8 -5 15 -10 15 -5 0 -7 3 -5 8 3 4 0 18 -6 32 -12 29 -18 50 -19 68 -1 6 -6
12 -11 12 -5 0 -7 9 -4 20 3 10 1 20 -4 22 -5 2 -16 30 -25 63 -8 33 -18 67
-21 75 -8 20 -13 40 -18 66 -1 12 -7 30 -13 40 -5 11 -7 25 -5 32 3 6 -1 12
-7 12 -6 0 -10 6 -7 13 2 6 0 20 -5 30 -5 11 -11 31 -14 45 -5 36 -12 67 -15
67 -1 0 -3 9 -5 20 -4 26 -12 60 -14 60 -1 0 -3 9 -5 20 -2 11 -6 31 -10 45
-4 14 -8 37 -9 53 0 15 -4 27 -7 27 -4 0 -7 11 -8 25 -4 56 -6 65 -11 65 -3 0
-5 14 -4 30 1 16 -1 30 -5 30 -4 0 -8 17 -9 37 -2 20 -8 43 -14 50 -7 9 -7 13
1 13 7 0 9 5 6 10 -8 14 -20 75 -31 170 -8 72 -13 105 -14 105 -2 0 -10 84
-13 127 -1 21 -4 38 -7 38 -3 0 -5 32 -5 71 0 39 -2 72 -5 74 -4 2 -5 21 -3
41 1 21 -2 44 -9 51 -7 9 -7 13 0 13 6 0 9 8 7 18 -2 9 -4 17 -5 17 -1 0 -3
61 -5 135 -1 74 -3 162 -4 195 -2 33 -2 62 -1 65 1 3 3 77 5 165 3 88 7 189
10 225 3 36 7 97 10 135 2 39 5 70 6 70 0 0 2 20 4 45 5 65 12 112 21 134 6
15 4 17 -7 11 -11 -7 -12 -6 -2 6 7 8 14 35 15 59 2 25 7 51 11 58 5 7 3 12
-3 12 -8 0 -8 6 0 21 7 11 9 27 6 35 -3 8 -2 14 3 14 4 0 8 6 8 13 0 6 4 37 8
67 4 30 8 61 8 68 0 6 4 12 8 12 4 0 6 11 4 25 -1 14 3 25 9 25 6 0 4 5 -4 10
-12 8 -12 10 -1 10 8 0 11 3 8 6 -3 4 -2 15 3 25 7 12 7 20 0 24 -6 4 -4 12 6
22 12 13 13 17 2 24 -8 6 -9 9 -1 9 6 0 16 24 21 53 6 28 13 66 17 82 4 17 8
37 10 45 2 8 4 15 5 15 2 0 10 43 13 70 1 11 5 22 9 25 4 3 8 20 10 37 1 17 6
29 10 27 7 -5 12 26 11 64 -1 6 3 12 8 12 5 0 9 9 9 21 0 11 4 28 9 38 6 10
11 28 13 42 2 13 6 29 9 34 8 14 23 68 21 78 -1 4 2 7 8 7 5 0 7 6 4 14 -3 8
0 17 5 21 6 3 9 11 6 16 -4 5 -2 9 3 9 5 0 9 7 10 15 1 8 3 22 4 30 1 8 4 15
7 15 4 0 8 12 9 27 1 15 8 30 15 35 6 4 8 8 3 8 -5 0 -3 6 3 13 6 8 13 24 15
38 3 13 5 26 6 29 2 3 2 8 1 13 0 4 4 7 9 7 6 0 10 6 9 13 -1 6 6 30 16 52 21
48 38 88 40 95 8 31 18 50 26 50 6 0 7 5 4 10 -3 6 -3 16 2 23 4 6 8 19 10 27
1 8 7 16 13 18 5 2 7 8 4 14 -4 6 -3 13 2 17 16 11 35 52 29 61 -4 6 -2 10 3
10 8 0 21 27 26 53 0 4 6 11 11 15 6 4 11 14 13 22 2 8 12 34 23 57 11 23 20
45 19 49 -1 4 4 10 11 15 7 4 14 15 15 25 2 9 6 20 11 23 8 6 66 120 67 133 1
4 7 13 14 20 6 6 12 17 12 24 0 6 7 17 15 24 8 7 12 16 9 21 -3 5 0 9 5 9 6 0
11 7 11 15 0 9 7 18 15 21 8 4 12 11 8 17 -3 5 2 16 12 24 11 7 16 13 12 13
-4 0 4 17 18 37 14 21 25 42 25 48 0 6 9 17 19 25 11 7 17 18 14 23 -3 6 1 15
9 21 8 6 23 27 34 46 10 19 38 63 62 97 23 35 40 63 37 63 -3 0 6 12 20 28 14
15 28 35 31 45 3 9 10 14 16 11 6 -4 8 -2 4 4 -3 6 -1 16 6 24 22 23 68 86 68
94 0 4 12 18 26 31 14 13 24 27 20 30 -3 3 6 15 20 25 14 11 23 23 20 26 -3 3
7 16 22 28 15 13 23 24 19 24 -4 0 6 13 22 29 16 16 27 31 24 34 -2 3 5 11 17
17 12 6 19 14 16 17 -2 3 5 15 17 28 12 12 28 32 36 43 8 12 18 19 23 16 4 -3
8 1 8 8 0 8 17 32 38 55 57 61 88 97 89 103 0 3 59 65 131 138 71 72 127 132
125 132 -3 0 5 9 19 19 14 11 63 57 109 102 46 45 94 88 106 96 13 8 21 19 18
23 -3 5 4 12 16 15 12 4 42 27 67 51 25 24 49 44 54 44 5 0 7 4 4 9 -3 5 6 12
19 15 14 4 23 11 20 16 -3 6 -2 10 3 10 5 0 18 8 30 18 55 46 69 57 99 78 18
12 29 24 26 28 -4 3 1 6 9 6 8 0 30 16 49 35 19 19 42 35 53 35 11 0 16 5 13
13 -3 8 0 14 6 14 16 0 107 65 107 76 0 4 4 6 9 3 5 -3 20 5 34 18 14 13 28
21 31 19 3 -3 8 2 12 11 3 9 12 16 20 16 8 0 14 5 14 11 0 5 5 7 10 4 6 -3 13
1 16 9 3 9 12 16 20 16 8 0 14 5 14 11 0 5 5 7 10 4 6 -3 10 -1 10 5 0 6 4 9
9 6 5 -3 11 1 15 9 3 8 12 15 21 15 8 0 15 5 15 10 0 6 7 10 15 10 7 0 18 8
24 18 5 9 12 16 16 14 3 -2 35 15 70 37 36 23 67 40 69 39 2 -2 13 5 23 15 11
9 23 14 26 10 4 -3 7 -2 7 4 0 6 14 16 30 22 17 5 30 15 30 21 0 6 5 8 10 5 6
-3 13 1 16 9 3 9 10 13 15 10 5 -3 24 6 41 19 18 14 39 22 46 20 6 -3 12 0 12
6 0 10 88 56 103 53 4 -1 7 3 7 9 0 5 5 7 10 4 6 -3 10 -1 10 4 0 6 6 11 14
11 8 0 21 7 30 15 8 9 17 15 18 14 8 -5 48 14 48 22 0 6 4 8 9 5 4 -3 17 1 27
9 10 8 25 15 33 15 8 0 23 8 34 18 11 9 17 12 14 5 -5 -8 -1 -8 18 0 14 7 25
15 25 20 0 4 6 7 14 7 8 0 40 13 70 29 31 16 53 24 50 20 -3 -5 10 -1 29 10
20 11 44 21 54 23 10 2 21 7 25 13 4 5 13 10 20 10 24 2 68 17 68 24 0 4 6 8
14 8 7 0 38 9 67 20 60 23 93 35 97 34 1 -1 17 5 36 13 19 8 37 12 40 8 3 -3
6 0 6 7 0 7 4 10 9 6 5 -3 13 0 16 6 4 5 13 8 21 5 8 -3 17 0 20 7 2 7 19 12
39 12 19 -1 32 2 29 7 -5 8 5 11 39 11 9 0 17 4 17 10 0 6 3 8 6 4 4 -3 22 0
41 8 19 8 39 13 43 10 5 -3 12 0 15 6 4 5 13 8 21 5 8 -3 14 -1 14 4 0 6 3 9
8 9 4 -1 9 0 12 1 5 2 22 6 55 13 11 2 27 7 35 10 8 4 29 8 45 11 17 2 30 5
30 6 0 1 7 3 15 5 28 6 75 16 87 19 7 1 15 5 19 8 3 4 12 4 19 2 7 -3 26 3 41
13 16 10 25 12 21 6 -9 -15 -6 -16 17 -7 9 3 13 11 10 16 -4 6 3 5 15 -1 11
-7 21 -8 21 -3 0 4 10 9 23 10 78 7 104 10 117 15 8 4 24 7 35 9 11 2 23 8 27
13 5 6 8 5 8 -2 0 -9 7 -10 25 -3 14 5 25 7 25 4 0 -3 6 -2 12 2 13 9 24 11
103 19 74 8 116 13 155 19 19 3 58 8 85 10 28 3 62 7 78 9 15 3 27 0 27 -7 0
-7 3 -8 8 -1 4 6 18 11 32 12 65 3 194 14 197 16 1 2 152 3 335 3 228 1 335
-3 340 -10z"/>
<path d="M7738 12325 c-2 -2 -21 -5 -43 -8 -225 -32 -418 -193 -505 -422 -35
-92 -35 -117 -35 -2742 0 -1420 -2 -2580 -6 -2577 -6 3 -56 89 -161 274 -79
138 -111 191 -119 196 -5 3 -9 12 -9 21 0 8 -8 27 -19 41 -10 15 -63 104 -116
197 -54 94 -114 197 -133 230 -19 33 -43 74 -52 90 -8 17 -23 41 -32 55 -9 14
-25 41 -35 60 -10 19 -26 46 -34 60 -18 28 -62 104 -174 300 -101 176 -227
396 -253 440 -21 35 -57 98 -101 175 -13 22 -63 108 -112 192 -49 84 -89 154
-89 157 0 2 -17 33 -38 67 -35 58 -165 280 -215 369 -33 60 -246 428 -335 580
-47 80 -96 165 -110 190 -42 76 -92 162 -129 225 -19 33 -44 75 -54 93 -66
115 -106 184 -137 237 -19 33 -43 75 -53 93 -11 18 -54 93 -96 165 -115 199
-263 456 -291 507 -132 234 -345 356 -602 345 -284 -12 -518 -205 -591 -488
-37 -144 -8 -349 64 -465 13 -20 35 -57 49 -82 28 -49 64 -112 150 -260 140
-242 271 -468 300 -520 11 -19 60 -105 110 -190 49 -85 94 -164 100 -175 6
-11 41 -69 76 -130 36 -60 76 -130 90 -155 13 -25 49 -88 80 -140 30 -52 67
-115 81 -140 15 -25 33 -56 41 -70 7 -14 45 -79 83 -145 164 -282 262 -452
276 -480 9 -16 18 -32 21 -35 5 -5 17 -25 57 -99 14 -25 32 -53 39 -62 8 -8
14 -20 15 -25 0 -5 24 -49 54 -99 30 -49 65 -110 78 -135 13 -25 70 -124 127
-220 56 -96 112 -191 122 -210 11 -19 32 -55 47 -80 48 -82 61 -105 91 -160
17 -30 39 -69 49 -86 38 -62 175 -300 199 -344 13 -25 27 -49 32 -55 4 -5 19
-30 32 -55 28 -49 55 -96 171 -297 42 -72 85 -147 96 -165 30 -52 81 -141 181
-313 51 -88 108 -187 127 -220 18 -33 38 -67 43 -75 18 -29 183 -315 210 -365
15 -27 42 -75 60 -105 31 -51 74 -126 121 -208 11 -18 54 -93 96 -165 103
-177 141 -244 169 -294 49 -86 155 -269 164 -283 5 -8 18 -31 28 -50 10 -19
49 -86 86 -149 37 -62 81 -139 98 -170 17 -31 37 -63 44 -72 8 -8 14 -19 14
-23 0 -23 80 -135 137 -191 72 -71 204 -143 302 -165 259 -59 529 51 677 275
79 118 105 220 98 380 -6 146 -12 4785 -6 4803 2 6 39 32 81 56 42 24 105 60
141 81 36 21 83 48 105 60 192 110 272 156 285 165 43 29 186 107 189 104 3
-3 5 -1236 6 -2742 1 -2992 -3 -2772 62 -2910 37 -79 44 -89 113 -165 148
-163 400 -237 610 -181 59 15 156 17 1050 19 542 2 996 5 1010 8 83 16 202 71
270 125 366 293 313 859 -100 1071 -41 21 -88 42 -105 46 -16 5 -32 9 -35 10
-51 14 -215 17 -846 17 l-751 0 -1 2718 c0 1495 3 2722 7 2727 7 10 46 35 104
67 51 29 147 83 167 96 15 9 90 53 158 92 18 10 93 53 165 95 73 42 161 93
197 113 36 21 110 63 165 95 55 32 129 74 165 94 192 107 323 326 323 544 1
165 -36 281 -128 402 -150 196 -394 288 -635 239 -95 -20 -127 -34 -302 -135
-79 -45 -168 -96 -198 -113 -30 -16 -57 -32 -60 -36 -5 -7 -156 -92 -175 -99
-5 -2 -17 -9 -25 -16 -8 -7 -40 -25 -70 -41 -30 -16 -57 -31 -60 -35 -3 -3
-30 -19 -60 -35 -30 -17 -73 -41 -95 -53 -52 -30 -401 -232 -485 -281 -36 -21
-153 -89 -260 -151 -107 -61 -222 -128 -255 -147 -33 -19 -75 -43 -93 -53 -87
-50 -183 -105 -237 -137 -33 -19 -76 -43 -95 -54 -19 -11 -75 -44 -125 -72
-49 -29 -110 -64 -135 -78 l-45 -26 -1 656 c-1 585 -2 664 -18 722 -59 226
-241 409 -461 465 -58 14 -208 28 -217 20z"/>
<path d="M2500 9667 c-3 -3 -32 -7 -65 -11 -251 -26 -464 -214 -531 -466 -36
-138 -13 -345 50 -455 13 -22 39 -67 58 -100 19 -33 79 -136 133 -230 171
-297 287 -498 320 -555 18 -30 75 -129 127 -220 82 -142 178 -309 316 -545 19
-33 43 -75 53 -93 60 -104 106 -184 137 -237 19 -33 61 -105 92 -160 31 -55
73 -127 92 -160 19 -33 79 -136 133 -230 54 -93 112 -195 130 -225 18 -30 75
-129 127 -220 52 -91 139 -241 193 -335 54 -93 112 -192 127 -220 16 -27 33
-57 38 -65 5 -8 32 -55 61 -105 29 -49 68 -117 87 -150 19 -33 61 -105 92
-160 31 -55 74 -129 95 -165 21 -36 64 -110 95 -165 31 -55 75 -131 98 -170
22 -38 83 -144 134 -235 80 -143 104 -176 178 -250 125 -125 245 -178 420
-184 183 -7 344 55 470 183 152 152 215 358 175 566 -20 108 -32 133 -193 410
-19 33 -43 75 -53 93 -37 64 -172 298 -262 452 -116 200 -146 252 -178 309
-14 25 -41 73 -61 106 -19 33 -79 137 -133 230 -54 94 -114 197 -133 230 -19
33 -61 105 -92 160 -31 55 -73 127 -92 160 -19 33 -78 134 -130 225 -130 226
-234 406 -303 525 -32 55 -83 143 -113 195 -30 52 -70 122 -90 155 -19 33 -61
105 -92 160 -31 55 -73 128 -94 163 -45 78 -103 177 -127 220 -55 96 -105 183
-134 232 -18 30 -75 129 -127 220 -52 91 -106 184 -121 207 -15 24 -27 44 -27
47 0 3 -46 84 -175 306 -18 30 -63 109 -100 175 -128 225 -291 346 -495 370
-30 3 -66 8 -80 11 -14 2 -28 3 -30 1z"/>
</g>
</svg>
