<?xml version="1.0" encoding="UTF-8" standalone="no"?>
<!-- Created with Inkscape (http://www.inkscape.org/) -->

<svg
   width="144.77138mm"
   height="144.77138mm"
   viewBox="0 0 512.96945 512.96945"
   id="svg3476"
   version="1.1"
   inkscape:version="1.3 (0e150ed6c4, 2023-07-21)"
   sodipodi:docname="javascript.svg"
   xmlns:inkscape="http://www.inkscape.org/namespaces/inkscape"
   xmlns:sodipodi="http://sodipodi.sourceforge.net/DTD/sodipodi-0.dtd"
   xmlns="http://www.w3.org/2000/svg"
   xmlns:svg="http://www.w3.org/2000/svg"
   xmlns:rdf="http://www.w3.org/1999/02/22-rdf-syntax-ns#"
   xmlns:cc="http://creativecommons.org/ns#"
   xmlns:dc="http://purl.org/dc/elements/1.1/">
  <defs
     id="defs3478" />
  <sodipodi:namedview
     id="base"
     pagecolor="#ffffff"
     bordercolor="#666666"
     borderopacity="1.0"
     inkscape:pageopacity="0.0"
     inkscape:pageshadow="2"
     inkscape:zoom="0.98994949"
     inkscape:cx="495.9849"
     inkscape:cy="353.04831"
     inkscape:document-units="px"
     inkscape:current-layer="layer1"
     showgrid="false"
     fit-margin-top="0"
     fit-margin-left="0"
     fit-margin-right="0"
     fit-margin-bottom="0"
     inkscape:window-width="1920"
     inkscape:window-height="1017"
     inkscape:window-x="1912"
     inkscape:window-y="-8"
     inkscape:window-maximized="1"
     inkscape:showpageshadow="2"
     inkscape:pagecheckerboard="0"
     inkscape:deskcolor="#d1d1d1" />
  <metadata
     id="metadata3481">
    <rdf:RDF>
      <cc:Work
         rdf:about="">
        <dc:format>image/svg+xml</dc:format>
        <dc:type
           rdf:resource="http://purl.org/dc/dcmitype/StillImage" />
      </cc:Work>
    </rdf:RDF>
  </metadata>
  <g
     inkscape:label="Calque 1"
     inkscape:groupmode="layer"
     id="layer1"
     transform="translate(-42.942963,-277.60434)">
    <path
       d="m 227.72149,278.25589 h 22.89841 v 22.69931 h 21.10637 v -22.69931 h 22.89841 v 68.69526 h -22.89841 v -22.89841 h -20.90725 v 22.89841 h -23.09753 m 97.16893,-45.79683 h -20.21035 v -22.89843 h 63.41868 v 22.89843 h -20.30992 v 45.79683 h -22.89841 m 53.26372,-68.69526 h 23.99355 l 14.73464,24.19269 14.73463,-24.19269 h 23.99356 v 68.69526 H 432.7121 v -34.04894 l -16.02889,24.69045 -16.02889,-24.69045 v 34.04894 h -22.50018 m 88.80603,-68.69526 h 22.89842 v 45.99596 h 32.45602 v 22.6993 h -55.35444"
       id="path1"
       style="stroke-width:0.995583" />
    <path
       fill="#e44d26"
       d="M 226.92502,747.17567 194.07077,378.41159 h 361.19764 l -32.85425,368.56496 -148.04324,41.01803"
       id="path2"
       style="stroke-width:0.995583" />
    <path
       fill="#f16529"
       d="M 374.66959,756.63371 V 408.67732 H 522.31461 L 494.1396,723.28167"
       id="path3"
       style="stroke-width:0.995583" />
    <path
       fill="#ebebeb"
       d="m 261.17309,453.77725 h 113.4965 v 45.19948 h -63.91645 l 4.18144,46.29462 h 59.73501 v 45.09993 H 273.51832 m 1.99117,22.69929 h 45.3986 l 3.18586,36.13969 50.57564,13.53993 v 47.19066 l -92.78837,-25.88517"
       id="path4"
       style="stroke-width:0.995583" />
    <path
       fill="#ffffff"
       d="M 487.76786,453.77725 H 374.47048 v 45.19948 h 109.11593 m -4.08189,46.29462 H 374.47048 v 45.19948 h 55.75266 l -5.27658,58.73943 -50.47608,13.53993 v 46.99154 l 92.58925,-25.68605"
       id="path5"
       style="stroke-width:0.995583" />
    <rect
       width="512.96948"
       height="512.96948"
       fill="#f7df1e"
       id="rect1"
       x="42.942963"
       y="277.60434"
       style="stroke-width:0.814237" />
    <path
       d="m 387.52822,678.36381 c 10.33267,16.871 23.77572,29.27183 47.55146,29.27183 19.97323,0 32.73234,-9.98255 32.73234,-23.77573 0,-16.52902 -13.10923,-22.38339 -35.09363,-31.99952 l -12.05071,-5.17042 c -34.78423,-14.81911 -57.89228,-33.38373 -57.89228,-72.62996 0,-36.15215 27.54565,-63.67337 70.59438,-63.67337 30.64789,0 52.68116,10.66652 68.55878,38.59485 l -37.53634,24.10143 c -8.26451,-14.81912 -17.18041,-20.65721 -31.02244,-20.65721 -14.11888,0 -23.06735,8.95662 -23.06735,20.65721 0,14.46085 8.95661,20.31522 29.63824,29.27182 l 12.05071,5.16228 c 40.95614,17.5631 64.08049,35.46818 64.08049,75.72408 0,43.39885 -34.09212,67.17457 -79.8767,67.17457 -44.76676,0 -73.68847,-21.33301 -87.83991,-49.29392 z m -170.28146,4.17703 c 7.57241,13.43492 14.46086,24.79353 31.02244,24.79353 15.83691,0 25.82761,-6.19634 25.82761,-30.28963 V 513.13876 h 48.20285 v 164.55737 c 0,49.91275 -29.26369,72.62998 -71.97859,72.62998 -38.59484,0 -60.94566,-19.97325 -72.31242,-44.02989 z"
       id="path1-9"
       style="stroke-width:0.814237" />
  </g>
</svg>
