<?xml version="1.0" encoding="UTF-8" standalone="no"?>
<!-- Created with Inkscape (http://www.inkscape.org/) -->

<svg
   width="477.59641mm"
   height="141.35368mm"
   viewBox="0 0 1692.2707 500.85951"
   id="svg3476"
   version="1.1"
   inkscape:version="1.3 (0e150ed6c4, 2023-07-21)"
   sodipodi:docname="mysql.svg"
   xmlns:inkscape="http://www.inkscape.org/namespaces/inkscape"
   xmlns:sodipodi="http://sodipodi.sourceforge.net/DTD/sodipodi-0.dtd"
   xmlns="http://www.w3.org/2000/svg"
   xmlns:svg="http://www.w3.org/2000/svg"
   xmlns:rdf="http://www.w3.org/1999/02/22-rdf-syntax-ns#"
   xmlns:cc="http://creativecommons.org/ns#"
   xmlns:dc="http://purl.org/dc/elements/1.1/">
  <defs
     id="defs3478">
    <clipPath
       clipPathUnits="userSpaceOnUse"
       id="clipPath3444">&#10;      <path
   d="M 11.52,162 C 11.52,81.677 135.307,16.561 288,16.561 v 0 c 152.693,0 276.481,65.116 276.481,145.439 v 0 c 0,80.322 -123.788,145.439 -276.481,145.439 v 0 C 135.307,307.439 11.52,242.322 11.52,162"
   id="path3446" />
&#10;    </clipPath>
    <radialGradient
       cx="0"
       cy="0"
       fx="0"
       fy="0"
       gradientTransform="matrix(363.05789,0,0,-363.05789,177.52002,256.30713)"
       gradientUnits="userSpaceOnUse"
       id="radialGradient3452"
       r="1"
       spreadMethod="pad">&#10;      <stop
   id="stop3454"
   offset="0"
   style="stop-opacity:1;stop-color:#aeb2d5" />
&#10;      <stop
   id="stop3456"
   offset="0.3"
   style="stop-opacity:1;stop-color:#aeb2d5" />
&#10;      <stop
   id="stop3458"
   offset="0.75"
   style="stop-opacity:1;stop-color:#484c89" />
&#10;      <stop
   id="stop3460"
   offset="1"
   style="stop-opacity:1;stop-color:#484c89" />
&#10;    </radialGradient>
    <clipPath
       clipPathUnits="userSpaceOnUse"
       id="clipPath3468">&#10;      <path
   d="M 0,324 H 576 V 0 H 0 Z"
   id="path3470" />
&#10;    </clipPath>
    <clipPath
       clipPathUnits="userSpaceOnUse"
       id="clipPath3480">&#10;      <path
   d="M 0,324 H 576 V 0 H 0 Z"
   id="path3482" />
&#10;    </clipPath>
  </defs>
  <sodipodi:namedview
     id="base"
     pagecolor="#ffffff"
     bordercolor="#666666"
     borderopacity="1.0"
     inkscape:pageopacity="0.0"
     inkscape:pageshadow="2"
     inkscape:zoom="0.98994949"
     inkscape:cx="812.16265"
     inkscape:cy="291.42901"
     inkscape:document-units="px"
     inkscape:current-layer="layer1"
     showgrid="false"
     fit-margin-top="0"
     fit-margin-left="0"
     fit-margin-right="0"
     fit-margin-bottom="0"
     inkscape:window-width="1920"
     inkscape:window-height="1017"
     inkscape:window-x="1912"
     inkscape:window-y="-8"
     inkscape:window-maximized="1"
     inkscape:showpageshadow="2"
     inkscape:pagecheckerboard="0"
     inkscape:deskcolor="#d1d1d1" />
  <metadata
     id="metadata3481">
    <rdf:RDF>
      <cc:Work
         rdf:about="">
        <dc:format>image/svg+xml</dc:format>
        <dc:type
           rdf:resource="http://purl.org/dc/dcmitype/StillImage" />
      </cc:Work>
    </rdf:RDF>
  </metadata>
  <g
     inkscape:label="Calque 1"
     inkscape:groupmode="layer"
     id="layer1"
     transform="translate(234.51104,-280.68155)">
    <path
       d="m 458.49126,388.99326 c -26.69501,145.29083 -61.70484,250.75797 -105.46715,316.40142 -34.04706,50.76427 -71.33257,76.14641 -112.03149,76.14641 -10.80929,0 -24.15679,-3.26904 -39.99874,-9.759 v -35.00983 c 7.74592,1.13782 16.80471,1.74173 27.26391,1.74173 18.94908,0 34.22212,-5.25148 45.95041,-15.71066 13.91642,-12.7786 20.87462,-27.13264 20.87462,-43.01835 0,-10.85304 -5.42653,-33.17181 -16.23582,-66.95633 L 207.07683,388.76568 h 64.33059 l 51.63952,167.60961 c 11.597,38.02944 16.45462,64.76822 14.48532,79.64739 28.22668,-75.70877 48.13851,-157.98192 59.0791,-247.257 h 62.14247 M 174.29887,678.47212 H 108.6554 C 106.34914,567.75349 99.946716,463.16159 89.531292,365.57166 H 88.953633 L -10.824419,678.47212 H -60.713428 L -160.05386,365.57166 h -0.58642 c -7.35206,93.65132 -11.99087,198.24323 -13.91641,312.90046 h -59.95435 c 3.85983,-139.60175 13.52255,-270.45103 28.97064,-392.54785 h 81.39789 l 94.526571,288.39356 h 0.58204 L 65.930296,285.92427 h 77.896884 c 17.02354,143.10273 27.08887,273.952 30.15222,392.54785"
       style="fill:#00758f;stroke-width:4.37624"
       id="path1" />
    <path
       d="M 1333.7373,678.69968 H 1147.7475 V 286.15183 h 62.5801 v 344.40932 h 123.4097 v 48.13853 M 865.48065,600.36516 c -15.84195,-25.60093 -23.80669,-66.51869 -23.80669,-123.40969 0,-98.90279 29.97719,-148.35422 89.71273,-148.35422 31.3338,0 54.26526,11.81585 69.14441,35.44748 15.842,25.60096 23.8067,66.51871 23.8067,122.09682 0,99.77806 -29.97716,149.66709 -89.71271,149.66709 -31.3338,0 -54.26524,-11.81585 -69.14444,-35.49124 m 233.25305,87.96223 -71.7701,-35.57876 c 6.3893,-5.25148 12.516,-10.94058 17.9863,-17.54868 30.5461,-36.01638 45.9504,-89.2751 45.9504,-159.7324 0,-129.97403 -50.7643,-194.74224 -152.73046,-194.74224 -49.88903,0 -88.83747,16.45462 -116.40772,49.4514 -30.58984,36.06015 -45.95042,89.27509 -45.95042,159.29477 0,69.14444 13.52255,119.47109 40.61142,151.85519 24.68195,29.05818 62.14246,43.63102 112.03149,43.63102 18.64274,0 35.71005,-2.3019 51.2019,-6.91445 l 93.65129,54.70287 25.5572,-44.19991 M 748.76659,570.34421 c 0,33.30312 -12.20967,60.82961 -36.54151,81.83551 -24.33183,21.31225 -56.89099,31.9465 -98.02756,31.9465 -38.292,0 -75.27116,-12.29722 -111.59386,-36.67283 l 16.80471,-33.74073 c 30.93996,15.49186 59.07911,23.23778 84.02364,23.23778 23.58787,0 42.05555,-5.25148 55.57812,-15.66691 13.30372,-10.45918 21.31222,-25.0758 21.31222,-43.58725 0,-23.32529 -16.2358,-43.23715 -45.95041,-59.95436 -27.48272,-15.09799 -82.27312,-46.82565 -82.27312,-46.82565 -29.75837,-21.74986 -44.63754,-45.07517 -44.63754,-83.58599 0,-31.8152 11.11562,-57.32862 33.34687,-77.02166 22.275,-19.60551 50.76425,-29.40826 86.21173,-29.40826 36.36647,0 69.58207,9.71522 99.34042,29.10193 l -15.14176,33.69696 c -25.46966,-10.80929 -50.76427,-16.27956 -75.27115,-16.27956 -20.0869,0 -35.57875,4.8576 -46.38804,14.57284 -10.85306,9.62771 -17.54869,22.0562 -17.54869,37.19795 0,23.23779 16.58593,43.41221 47.26329,60.39198 27.78906,15.14177 84.02363,47.26329 84.02363,47.26329 30.58984,21.7061 45.95041,45.07517 45.95041,83.14837"
       style="fill:#f29111;stroke-width:4.37624"
       id="path2" />
    <path
       d="m 1368.7472,678.69968 h 10.3715 v -39.95499 h 13.5664 v -8.13978 h -38.0731 v 8.13978 h 14.0914 z m 79.2097,0 h 9.8028 v -48.13853 h -14.7041 l -11.9909,32.77796 -13.0412,-32.77796 h -14.1789 v 48.13853 h 9.2775 v -36.62905 h 0.5251 l 13.6539,36.62905 h 7.0457 l 13.6539,-36.62905 v 36.62905"
       style="fill:#f29111;stroke-width:4.37624"
       id="path3" />
  </g>
</svg>
